<?xml version="1.0" encoding="utf-8"?>
<!-- Generator: Adobe Illustrator 15.1.0, SVG Export Plug-In . SVG Version: 6.00 Build 0)  -->
<!DOCTYPE svg PUBLIC "-//W3C//DTD SVG 1.1//EN" "http://www.w3.org/Graphics/SVG/1.1/DTD/svg11.dtd">
<svg version="1.1" id="Слой_1" 
	xmlns="http://www.w3.org/2000/svg" 
	xmlns:xlink="http://www.w3.org/1999/xlink" x="0px" y="0px" width="1714px" height="136.697px" viewBox="0 0 1714 136.697" enable-background="new 0 0 1714 136.697" xml:space="preserve">
	<g>
		<path fill="#E5F6FD" d="M1856.18,44.939c-11.989-3.776-23.89-7.805-35.97-11.413C1695.602-3.69,1561.02-8.348,1432.875,11.792
		c-65.713,10.322-130.08,27.986-193.059,49.217c-62.432,21.063-122.381,45.902-186.875,60.461
		c-34.118,7.722-68.615,13.512-103.365,17.455c-35.844,4.028-71.939,6.042-108.036,6.042c-19.815,0-39.504-0.587-59.066-1.804
		c-0.21,0-0.42,0.042-0.589,0.168c-0.547,0.377-0.505,1.258,0.084,1.594s1.22,0.714,1.851,0.84
		c4.628,1.007,9.297,1.972,14.009,2.727c15.44,2.56,30.879,5.203,46.361,7.511c10.518,1.553,21.077,2.728,31.637,3.944
		c8.624,1.007,17.248,1.972,25.872,2.685c9.761,0.839,19.604,1.008,29.323,2.183c14.178,1.72,28.523,0.755,42.701,2.602
		c0.041,0,0.084,0,0.084,0c46.487,0.503,92.975,1.384,139.461-0.966c20.951-1.048,41.944-1.972,62.896-3.398
		c14.808-1.007,29.575-2.014,44.341-3.44c20.32-1.972,40.682-3.692,61.044-5.58c5.849-0.546,11.695-1.217,17.501-1.93
		c11.948-1.47,23.854-2.979,35.801-4.49c14.431-1.804,28.903-3.482,43.291-5.538c20.782-2.979,41.522-6.126,62.222-9.399
		c25.704-4.027,51.408-7.972,77.029-12.419c30.29-5.287,60.581-10.824,90.787-16.741c35.675-7.007,71.309-14.224,106.858-21.944
		c39.082-8.476,78.081-17.538,117.041-26.476c8.96-2.056,18.09-3.566,26.75-6.755c0.55-0.21,0.8-0.839,0.51-1.343
		C1858.75,45.82,1857.571,45.4,1856.18,44.939z"/>
	</g>
	<g>
		<defs>
			<rect id="SVGID_1_" x="-2.499" width="1719" height="136.697"/>
		</defs>
		<clipPath id="SVGID_2_">
			<use xlink:href="#SVGID_1_" overflow="visible"/>
		</clipPath>
		<path clip-path="url(#SVGID_2_)" fill="#2E3192" stroke="#000000" d="M681.995,75.305C1233.158,187.535,1562.1,75.658,1716.5,0
		v764.697H0.798L-2.499,64c97.756-50.09,199.944-61.308,312.12-52.988c95.604,7.09,198.425,28.365,311.922,51.852
		C641.361,66.964,661.507,71.133,681.995,75.305z"/>
	</g>
</svg>
