<svg width="64" height="64" viewBox="0 0 64 64" fill="none" 
    xmlns="http://www.w3.org/2000/svg">
    <path d="M61.9773 48.516C62.659 48.516 63.2119 47.9631 63.2119 47.2814V45.1224C63.2118 41.8271 61.3137 38.9684 58.5545 37.5767C59.99 36.3614 60.9037 34.548 60.9037 32.5242V30.9854C60.9037 27.3351 57.9338 24.3652 54.2835 24.3652C50.6331 24.3652 47.6633 27.3351 47.6633 30.9854V32.5242C47.6633 34.2834 48.3543 35.8832 49.4774 37.0701C47.3069 37.5543 45.2544 38.4783 43.4211 39.8157L32.2415 47.9715C32.0103 48.1401 31.7985 48.3297 31.6059 48.5355C31.4133 48.3297 31.2013 48.1401 30.9703 47.9715L19.7907 39.8157C17.9573 38.4783 15.9049 37.5543 13.7344 37.0701C14.8575 35.8832 15.5486 34.2834 15.5486 32.5242V30.9854C15.5486 27.3351 12.5788 24.3652 8.92842 24.3652C5.27806 24.3652 2.30822 27.3351 2.30822 30.9854V32.5242C2.30822 34.548 3.22195 36.3614 4.65742 37.5767C1.89808 38.9684 0 41.8271 0 45.1225V62.0167C0 62.6985 0.552856 63.2513 1.23461 63.2513H16.6221C17.3039 63.2513 17.8567 62.6985 17.8567 62.0167V50.6802L25.9346 55.5507C27.3602 56.4103 29.0764 56.4346 30.5259 55.6162C30.9353 55.3849 31.296 55.0992 31.6059 54.7731C31.9158 55.0994 32.2765 55.3851 32.6859 55.6162C33.3913 56.0146 34.1598 56.2132 34.9271 56.2132C35.7368 56.2132 36.5453 55.992 37.277 55.5507L45.3551 50.6802V62.0167C45.3551 62.6985 45.9079 63.2513 46.5897 63.2513H61.9772C62.6589 63.2513 63.2118 62.6985 63.2118 62.0167V57.5561C63.2118 56.8744 62.6589 56.3215 61.9772 56.3215C61.2954 56.3215 60.7426 56.8744 60.7426 57.5561V60.7821H47.8243V49.3886C47.8243 49.3246 47.8179 49.2623 47.8086 49.2009L49.1506 48.3918C49.7346 48.0396 49.9225 47.281 49.5704 46.697C49.2181 46.113 48.4591 45.9248 47.8756 46.2773L36.0021 53.4362C35.3493 53.8298 34.5635 53.8409 33.9002 53.4661C33.2367 53.0914 32.8405 52.4127 32.8405 51.6506C32.8405 50.987 33.1606 50.3573 33.6968 49.9661L44.8764 41.8103C47.2672 40.0661 50.0952 39.1442 53.0548 39.1442H54.7644C58.0608 39.1442 60.7427 41.826 60.7427 45.1224V47.2814C60.7427 47.9631 61.2955 48.516 61.9773 48.516ZM4.7773 30.9854C4.7773 28.6966 6.63946 26.8344 8.92829 26.8344C11.2171 26.8344 13.0793 28.6966 13.0793 30.9854V32.5242C13.0793 34.8131 11.2171 36.6752 8.92829 36.6752C6.63946 36.6752 4.7773 34.8131 4.7773 32.5242V30.9854ZM29.3116 53.4661C28.6479 53.8408 27.8622 53.8296 27.2096 53.4362L15.3361 46.2773C14.7523 45.9249 13.9934 46.1132 13.6414 46.697C13.2893 47.2809 13.4772 48.0396 14.0612 48.3918L15.4017 49.2001C15.3923 49.2615 15.3874 49.3245 15.3874 49.3886V60.7821H2.46921V45.1225C2.46921 41.8261 5.15114 39.1443 8.44754 39.1443H10.1571C13.1167 39.1443 15.9447 40.0662 18.3355 41.8104L29.5151 49.9662C30.0513 50.3574 30.3714 50.9871 30.3714 51.6507C30.3713 52.4127 29.9751 53.0914 29.3116 53.4661ZM58.4345 32.5242C58.4345 34.8131 56.5723 36.6752 54.2835 36.6752C51.9947 36.6752 50.1325 34.8131 50.1325 32.5242V30.9854C50.1325 28.6966 51.9947 26.8344 54.2835 26.8344C56.5723 26.8344 58.4345 28.6966 58.4345 30.9854V32.5242Z" class="svg-color"/>
    <path d="M62.8505 51.3937C62.621 51.1642 62.3025 51.0332 61.9778 51.0332C61.6531 51.0332 61.3345 51.1642 61.1049 51.3937C60.8753 51.6246 60.7432 51.9419 60.7432 52.2666C60.7432 52.5925 60.8751 52.9098 61.1049 53.1407C61.3345 53.3703 61.6531 53.5024 61.9778 53.5024C62.3025 53.5024 62.621 53.3704 62.8505 53.1407C63.0802 52.9098 63.2124 52.5925 63.2124 52.2666C63.2124 51.9419 63.0803 51.6233 62.8505 51.3937Z" class="svg-color"/>
    <path d="M50.995 0.0449219H46.9208C46.2391 0.0449219 45.6862 0.597655 45.6862 1.27953C45.6862 1.9614 46.2391 2.51413 46.9208 2.51413H48.0143L33.5867 16.9418L24.1453 7.50045C23.9137 7.26897 23.5998 7.13884 23.2724 7.13884C22.9449 7.13884 22.631 7.26897 22.3994 7.50045L13.6018 16.298C13.1197 16.7802 13.1197 17.5619 13.6018 18.0441C14.0841 18.5263 14.8656 18.5262 15.3479 18.0441L23.2725 10.1194L32.7139 19.5608C32.955 19.8019 33.2709 19.9224 33.5869 19.9224C33.9028 19.9224 34.2187 19.8019 34.4599 19.5608L49.7604 4.26023V5.35372C49.7604 6.0356 50.3133 6.58833 50.995 6.58833C51.6768 6.58833 52.2296 6.0356 52.2296 5.35372V1.27953C52.2296 0.597655 51.6768 0.0449219 50.995 0.0449219Z" class="svg-color"/>
    <path d="M12.2314 19.4145C12.0019 19.1848 11.6833 19.0527 11.3586 19.0527C11.0339 19.0527 10.7154 19.1848 10.4858 19.4145C10.2561 19.6441 10.124 19.9626 10.124 20.2873C10.124 20.612 10.256 20.9306 10.4858 21.1602C10.7155 21.3898 11.0339 21.5219 11.3586 21.5219C11.6833 21.5219 12.0019 21.3898 12.2314 21.1602C12.461 20.9306 12.5932 20.612 12.5932 20.2873C12.5932 19.9614 12.4611 19.6441 12.2314 19.4145Z" class="svg-color"/>
</svg>
