<svg width="77" height="77" viewBox="0 0 77 77" fill="none" 
    xmlns="http://www.w3.org/2000/svg">
    <path d="M32.6726 55.8586C32.3929 55.5774 32.0049 55.418 31.6079 55.418C31.2123 55.418 30.8258 55.5774 30.5446 55.8586C30.2649 56.1383 30.1055 56.5248 30.1055 56.9219C30.1055 57.3174 30.2649 57.7054 30.5446 57.985C30.8258 58.2647 31.2123 58.4258 31.6079 58.4258C32.0049 58.4258 32.3914 58.2649 32.6726 57.985C32.9524 57.7054 33.1133 57.3174 33.1133 56.9219C33.1133 56.5247 32.9524 56.1383 32.6726 55.8586Z" class="svg-color"/>
    <path d="M66.0174 25.9088H60.8318C62.7001 24.0452 63.858 21.4695 63.858 18.6283V6.6608V1.50391C63.858 0.673299 63.1847 0 62.3541 0H50.6537C46.5885 0 43.2812 3.30724 43.2812 7.37245V12.3156C43.2812 12.3262 43.2826 12.3362 43.2827 12.3466C43.2826 12.357 43.2812 12.3672 43.2812 12.3776V18.6283C43.2812 21.4695 44.4391 24.0451 46.3074 25.9088H30.0861C31.9544 24.0452 33.1123 21.4695 33.1123 18.6283V6.6608V1.50391C33.1123 0.673299 32.439 0 31.6084 0H19.908C15.8427 0 12.5355 3.30724 12.5355 7.37245V12.3156C12.5355 12.3262 12.5369 12.3362 12.537 12.3466C12.5369 12.357 12.5355 12.3672 12.5355 12.3776V18.6283C12.5355 21.4695 13.6934 24.0451 15.5617 25.9088H12.1674C5.45828 25.9088 0 31.3671 0 38.0764V56.9209C0 57.7514 0.673299 58.4248 1.50391 58.4248H25.2656C26.0962 58.4248 26.7695 57.7514 26.7695 56.9209C26.7695 56.0904 26.0962 55.417 25.2656 55.417H9.80727V45.7076C9.80727 44.8772 9.13398 44.2037 8.30337 44.2037C7.47276 44.2037 6.79946 44.8772 6.79946 45.7076V55.417H3.00781V38.0764C3.00781 33.0258 7.11679 28.9167 12.1675 28.9167H16.3876L21.32 36.2956V45.2592C21.32 46.0896 21.9933 46.7631 22.8239 46.7631C23.6545 46.7631 24.3278 46.0896 24.3278 45.2592V36.3354L29.821 28.9167H35.2719C39.6691 28.9167 43.2466 32.4942 43.2466 36.8914V43.061C43.2466 43.8915 43.9199 44.565 44.7505 44.565C45.5811 44.565 46.2544 43.8915 46.2544 43.061V36.8914C46.2544 33.7529 44.929 30.9199 42.8111 28.9167H46.83L52.0161 36.675C52.288 37.082 52.7409 37.331 53.2302 37.3427C53.2423 37.343 53.2544 37.3432 53.2664 37.3432C53.7422 37.3432 54.191 37.1178 54.4749 36.7343L60.2633 28.9168H66.0174C70.4147 28.9168 73.9922 32.4943 73.9922 36.8916V43.0612C73.9922 43.8917 74.6655 44.5651 75.4961 44.5651C76.3267 44.5651 77 43.8917 77 43.0612V36.8916C77 30.8356 72.0732 25.9088 66.0174 25.9088ZM15.5435 7.37245C15.5435 4.96575 17.5014 3.00781 19.9081 3.00781H30.1046V6.6608C30.1046 8.9496 28.2426 10.8117 25.9537 10.8117H15.5435V7.37245ZM22.8867 33.2272L20.0054 28.9167H26.0783L22.8867 33.2272ZM22.824 25.909C18.8095 25.909 15.5435 22.643 15.5435 18.6284V13.8195H25.9537C27.5003 13.8195 28.9327 13.3249 30.1046 12.4877V18.6284C30.1046 22.643 26.8386 25.909 22.824 25.909ZM46.2889 7.37245C46.289 4.96575 48.2471 3.00781 50.6537 3.00781H60.8502V6.6608C60.8502 8.9496 58.9882 10.8117 56.6992 10.8117H46.2889V7.37245ZM53.3291 33.2272L50.4478 28.9167H56.5207L53.3291 33.2272ZM53.5697 25.909C49.5552 25.909 46.289 22.643 46.289 18.6284V13.8195H56.6994C58.246 13.8195 59.6785 13.3249 60.8503 12.4877V18.6284C60.8503 22.643 57.5843 25.909 53.5697 25.909Z" class="svg-color"/>
    <path d="M71.4966 46.9949H64.5015V44.1027C64.5015 42.125 62.8923 40.5156 60.9144 40.5156H53.0819C51.1039 40.5156 49.4948 42.1248 49.4948 44.1027V46.9949H42.4996C39.4651 46.9949 36.9961 49.4637 36.9961 52.4984V71.4964C36.9962 74.5311 39.4652 76.9999 42.4998 76.9999H71.4968C74.5312 76.9999 77.0002 74.5311 77.0002 71.4964V52.4984C77.0002 49.4637 74.5312 46.9949 71.4966 46.9949ZM53.082 43.5234H60.9145C61.234 43.5234 61.4938 43.7833 61.4938 44.1027V46.9949H52.5029V44.1027H52.5027C52.5027 43.7833 52.7626 43.5234 53.082 43.5234ZM73.9924 71.4964C73.9924 72.8726 72.8729 73.9921 71.4966 73.9921H42.4998C41.1237 73.9921 40.0041 72.8726 40.0041 71.4964V60.6266H52.9945V60.8726C52.9945 63.0802 54.7905 64.8762 56.9982 64.8762C59.2059 64.8762 61.0019 63.0802 61.0019 60.8726V60.6266H73.9924V71.4964ZM56.0023 60.8726V58.8768H57.9941V60.8726C57.9941 61.4216 57.5474 61.8684 56.9982 61.8684C56.449 61.8684 56.0023 61.4216 56.0023 60.8726ZM73.9924 57.6188H61.0019V57.3729C61.0019 56.5425 60.3286 55.869 59.498 55.869H54.4986C53.668 55.869 52.9947 56.5425 52.9947 57.3729V57.6188H40.0041V52.4984C40.0041 51.1224 41.1236 50.0027 42.4998 50.0027H50.9988H62.9976H71.4966C72.8727 50.0027 73.9924 51.1222 73.9924 52.4984V57.6188Z" class="svg-color"/>
</svg>
