<svg width="25" height="25" viewBox="0 0 25 25" fill="none" xmlns="http://www.w3.org/2000/svg">
<rect x="0.5" y="0.5" width="24" height="23.6486" rx="11.8243" fill="white" stroke="#696B79"/>
<path d="M8.09304 12.6569C7.90627 12.6569 7.75781 12.5058 7.75781 12.3218C7.75781 12.1377 7.90627 11.9914 8.09304 11.9914H12.159V7.98451C12.1593 7.80046 12.3126 7.64941 12.4993 7.64941C12.6861 7.64941 12.8346 7.80046 12.8346 7.98451V11.9914H16.9005C17.0873 11.9914 17.2406 12.1377 17.2406 12.3218C17.2406 12.5058 17.0873 12.6569 16.9005 12.6569H12.8346V16.6638C12.8346 16.8479 12.6861 16.9989 12.4993 16.9989C12.3126 16.9989 12.1593 16.8479 12.1593 16.6638V12.6569H8.09304Z" fill="#4F4F4F"/>
</svg>
