<svg width="31" height="35" viewBox="0 0 31 35" fill="none" 
    xmlns="http://www.w3.org/2000/svg">
    <path d="M2.70754 11.9795H2.6186C1.47845 11.9795 0.548828 12.8949 0.548828 14.0112V22.8568C0.548828 23.9775 1.47845 24.89 2.6186 24.89H2.70905C3.84921 24.89 4.77883 23.9745 4.77883 22.8568V14.0111C4.77732 12.8949 3.84625 11.9795 2.70754 11.9795Z" fill="white"/>
    <path d="M5.76953 26.2718C5.76953 27.2992 6.62498 28.1361 7.67171 28.1361H9.70442V32.914C9.70442 34.0361 10.637 34.9486 11.7742 34.9486H11.8631C13.0048 34.9486 13.9358 34.0347 13.9358 32.914V28.1361H16.7766V32.914C16.7766 34.0361 17.7121 34.9486 18.8493 34.9486H18.9368C20.0783 34.9486 21.008 34.0347 21.008 32.914V28.1361H23.0421C24.0873 28.1361 24.9429 27.2992 24.9429 26.2718V12.3047H5.76953V26.2718Z" fill="white"/>
    <path d="M20.131 3.8337L21.7456 1.38726C21.8494 1.23296 21.8034 1.02198 21.6447 0.921518C21.4876 0.81964 21.2726 0.861875 21.1703 1.0205L19.4964 3.5514C18.2407 3.0464 16.8381 2.76262 15.3569 2.76262C13.8743 2.76262 12.4747 3.0464 11.216 3.5514L9.5451 1.0205C9.44283 0.861875 9.22632 0.81964 9.06769 0.921518C8.90905 1.02191 8.86307 1.23296 8.96686 1.38726L10.5829 3.8337C7.66953 5.23524 5.70508 7.87673 5.70508 10.9068C5.70508 11.0931 5.71697 11.2764 5.73326 11.4583H24.9821C24.9983 11.2764 25.0087 11.0931 25.0087 10.9068C25.0088 7.87673 23.0428 5.23524 20.131 3.8337ZM10.8943 8.21434C10.3828 8.21434 9.9676 7.80973 9.9676 7.30621C9.9676 6.80268 10.3828 6.39949 10.8943 6.39949C11.4087 6.39949 11.8209 6.80262 11.8209 7.30621C11.8209 7.8098 11.4058 8.21434 10.8943 8.21434ZM19.8182 8.21434C19.3067 8.21434 18.8915 7.80973 18.8915 7.30621C18.8915 6.80268 19.3067 6.39949 19.8182 6.39949C20.3311 6.39949 20.7433 6.80262 20.7433 7.30621C20.7433 7.80973 20.3311 8.21434 19.8182 8.21434Z" fill="white"/>
    <path d="M28.0933 11.9795H28.0073C26.8671 11.9795 25.9346 12.8949 25.9346 14.0112V22.8568C25.9346 23.9775 26.8687 24.89 28.0073 24.89H28.0948C29.2364 24.89 30.1646 23.9745 30.1646 22.8568V14.0111C30.1646 12.8949 29.2334 11.9795 28.0933 11.9795Z" fill="white"/>
</svg>
