<svg width="29" height="35" viewBox="0 0 29 35" fill="none" 
    xmlns="http://www.w3.org/2000/svg">
    <path d="M23.7335 18.4858C23.6903 14.2408 27.272 12.205 27.432 12.1039C25.4195 9.22267 22.2845 8.82797 21.1674 8.78234C18.4994 8.51805 15.9615 10.3191 14.6075 10.3191C13.2568 10.3191 11.1674 8.82143 8.95473 8.86077C6.04673 8.90306 3.36537 10.5151 1.86801 13.0631C-1.15335 18.1924 1.09427 25.7912 4.03907 29.9511C5.47802 31.9874 7.19385 34.2744 9.44669 34.1927C11.6161 34.108 12.4365 32.8193 15.0594 32.8193C17.6822 32.8193 18.4195 34.1927 20.7153 34.1506C23.0499 34.1081 24.5289 32.0753 25.9579 30.0328C27.6104 27.6705 28.2907 25.3834 28.3309 25.266C28.279 25.2429 23.7786 23.5561 23.7335 18.4858ZM19.4196 6.02842C20.6153 4.60916 21.4224 2.64011 21.2022 0.675781C19.4799 0.744391 17.3922 1.79821 16.1565 3.21426C15.0477 4.47044 14.0771 6.47536 14.3372 8.40041C16.2599 8.54719 18.2226 7.44446 19.4196 6.02842Z" fill="white"/>
</svg>
