<svg width="131" height="130" viewBox="0 0 131 130" fill="none" xmlns="http://www.w3.org/2000/svg">
<path d="M65.0126 104.215C70.1708 104.215 75.1968 103.209 79.9846 101.225C89.6661 97.2293 97.1786 89.6879 101.199 80.0033C105.22 70.3186 105.22 59.6814 101.199 49.9968C95.1153 35.2846 80.884 25.7852 64.9597 25.7852C59.8015 25.7852 54.7756 26.7907 49.9877 28.7752C30.0163 37.031 20.4935 60.0254 28.773 80.0033C34.857 94.689 49.0884 104.215 65.0126 104.215ZM51.9981 33.6175C56.1511 31.8976 60.5157 31.0244 64.9597 31.0244C78.7414 31.0244 91.0681 39.2537 96.3586 52.0078C99.8238 60.3959 99.8238 69.6307 96.3586 77.9923C92.8933 86.3803 86.3596 92.8897 77.9742 96.3825C73.8212 98.1025 69.4566 98.9757 65.0126 98.9757C51.231 98.9757 38.9042 90.7464 33.6138 77.9923C26.4452 60.6869 34.6983 40.762 51.9981 33.6175Z" fill="#909095"/>
<path d="M3.83315 87.4147C4.23215 88.4807 5.24296 89.1735 6.30697 89.1735C6.59957 89.1735 6.89218 89.1202 7.18478 89.0136C8.54139 88.534 9.2596 87.0149 8.7808 85.6291C0.986917 63.8031 6.17397 39.9517 22.3469 23.3756C33.519 11.9162 48.495 5.49368 64.4818 5.30714C80.4419 5.12059 95.5775 11.1701 107.016 22.3629L100.286 22.4429C98.8227 22.4695 97.6789 23.6421 97.6789 25.1078C97.7055 26.5469 98.8759 27.7195 100.312 27.7195H100.339L113.426 27.5596C114.118 27.5596 114.783 27.2664 115.288 26.7601C115.767 26.2538 116.033 25.5875 116.033 24.8946L115.873 11.783C115.847 10.3173 114.676 9.11804 113.213 9.17133C111.75 9.19798 110.607 10.3706 110.607 11.8363L110.686 18.5787C98.2375 6.39977 81.8251 -0.182689 64.4286 0.00385888C47.032 0.243706 30.726 7.19926 18.5697 19.6713C9.8714 28.5989 3.91295 39.7651 1.38592 51.9174C-1.0879 63.7764 -0.236695 76.0353 3.83315 87.4147Z" fill="#2C2F33"/>
<path d="M107.655 106.63C84.5925 130.32 46.6073 130.747 22.9862 107.644L29.7161 107.563C31.1791 107.537 32.3229 106.363 32.3229 104.896C32.2963 103.455 31.1259 102.281 29.6895 102.281H29.6629L16.5756 102.441C15.1126 102.468 13.9688 103.642 13.9688 105.109L14.1284 118.235C14.155 119.675 15.3254 120.849 16.7618 120.849H16.7884C18.2514 120.822 19.3952 119.649 19.3952 118.181L19.3154 111.432C31.9771 123.81 48.3895 130 64.8285 130C81.7728 130 98.6906 123.437 111.432 110.365C120.13 101.428 126.089 90.2494 128.616 78.0842C131.09 66.2392 130.239 53.9406 126.169 42.5757C125.69 41.2152 124.174 40.4949 122.79 40.9751C121.434 41.4553 120.716 42.9759 121.194 44.3632C129.015 66.1591 123.828 90.036 107.655 106.63Z" fill="#2C2F33"/>
</svg>
