<svg width="42" height="38" viewBox="0 0 42 38" fill="none" 
    xmlns="http://www.w3.org/2000/svg">
    <path d="M9.50162 7.94109C9.62664 7.94109 9.75166 7.94109 9.87668 7.81319L17.628 1.16197C17.8781 0.906153 17.8781 0.522429 17.753 0.266612C17.503 0.0107964 17.1279 0.0107964 16.8779 0.138704L9.12655 6.91783C8.87651 7.04574 8.75149 7.55737 9.00153 7.81319C9.12655 7.94109 9.37659 7.94109 9.50162 7.94109Z" fill="black"/>
    <path d="M31.3798 7.81392C31.5049 7.94183 31.6299 7.94183 31.7549 7.94183C31.8799 7.94183 32.13 7.81392 32.255 7.68602C32.505 7.4302 32.38 7.04648 32.13 6.79066L24.3786 0.139441C24.1286 -0.116375 23.7535 0.0115335 23.5035 0.26735C23.2534 0.523166 23.3785 0.90689 23.6285 1.16271L31.3798 7.81392Z" fill="black"/>
    <path d="M0 10.1162V18.5581H3.87567L5.62597 38.0002H35.3811L37.2564 18.5581H41.2571V10.1162H0ZM34.381 36.7211H6.87619L5.12589 18.5581H36.1313L34.381 36.7211ZM40.0069 17.2791H37.5065H3.75065H1.25022V11.3953H40.0069V17.2791Z" fill="black"/>
    <path d="M18.3781 23.1631H17.1279V31.9887H18.3781V23.1631Z" fill="black"/>
    <path d="M13.1272 22.7793H11.877V32.5003H13.1272V22.7793Z" fill="black"/>
    <path d="M29.3801 22.7793H28.1299V32.5003H29.3801V22.7793Z" fill="black"/>
    <path d="M24.5041 23.1631H23.2539V31.9887H24.5041V23.1631Z" fill="black"/>
</svg>
