<svg width="115" height="115" viewBox="0 0 115 115" fill="none" 
    xmlns="http://www.w3.org/2000/svg">
    <path d="M113 42.6241C109.012 27.7365 99.5165 15.3215 86.2621 7.66668C77.5777 2.65097 67.6862 0 57.6578 0C37.0593 0 17.9095 11.0083 7.6819 28.7287C0.0298967 41.9867 -1.98822 57.4874 1.99995 72.3755C5.98789 87.2637 15.4833 99.6783 28.7377 107.333C30.582 108.398 32.4806 109.355 34.4237 110.204H33.532C32.2082 110.204 31.1352 111.278 31.1352 112.602C31.1352 113.926 32.2084 115 33.532 115H57.3144C57.3238 115 57.333 115 57.3427 115C57.3521 115 57.3613 115 57.3707 115H81.4689C82.7925 115 83.8657 113.926 83.8657 112.602C83.8657 111.278 82.7923 110.204 81.4689 110.204H80.4006C91.5559 105.362 101.091 97.0608 107.318 86.2716C114.97 73.0129 116.988 57.5121 113 42.6241ZM103.166 83.8736C93.7968 100.107 76.2507 110.194 57.3705 110.204H57.3141C48.1352 110.199 39.0832 107.771 31.1345 103.18C5.95375 88.6374 -2.7045 56.3141 11.8336 31.126C21.2077 14.8847 38.7665 4.79507 57.658 4.79507C66.8461 4.79507 75.9087 7.22407 83.8655 11.8194C109.046 26.3619 117.704 58.6852 103.166 83.8736Z" fill="#7C8495"/>
    <path d="M46.334 99.1864C31.4929 95.2078 19.8029 83.5147 15.8259 68.6697C15.4834 67.3904 14.1683 66.6308 12.8905 66.9741C11.6118 67.317 10.8528 68.6318 11.1956 69.9106C15.6143 86.4054 28.6028 99.3978 45.0932 103.818C45.3008 103.874 45.5097 103.901 45.715 103.901C46.7731 103.901 47.7418 103.194 48.0287 102.122C48.3714 100.844 47.6125 99.529 46.334 99.1864Z" fill="#7C8495"/>
    <path d="M69.9064 11.1808C68.6282 10.8384 67.3137 11.5976 66.971 12.8764C66.6282 14.1553 67.3872 15.4697 68.6659 15.8125C83.5072 19.7911 95.197 31.484 99.173 46.3289C99.4599 47.4 100.428 48.1066 101.487 48.1066C101.692 48.1066 101.901 48.0801 102.108 48.0241C103.387 47.6813 104.146 46.3669 103.803 45.088C99.3855 28.5935 86.397 15.6009 69.9064 11.1808Z" fill="#7C8495"/>
    <path d="M56.0663 100.633C55.4677 100.612 54.8638 100.58 54.2717 100.535C52.9568 100.435 51.801 101.426 51.7021 102.747C51.6031 104.067 52.5927 105.218 53.913 105.317C54.5704 105.367 55.2406 105.403 55.9048 105.425C55.9322 105.426 55.9596 105.427 55.987 105.427C57.2734 105.427 58.3376 104.406 58.3809 103.11C58.4258 101.786 57.3893 100.677 56.0663 100.633Z" fill="#7C8495"/>
    <path d="M58.9323 14.3665C59.5291 14.3872 60.1344 14.42 60.7303 14.4638C60.7907 14.4685 60.8507 14.4703 60.9102 14.4703C62.1532 14.4703 63.2044 13.5103 63.298 12.2501C63.396 10.9294 62.4052 9.77975 61.0852 9.68156C60.4255 9.63281 59.7564 9.59641 59.0958 9.57394C57.7747 9.52474 56.6638 10.5654 56.6186 11.8886C56.5735 13.2124 57.6096 14.3218 58.9323 14.3665Z" fill="#7C8495"/>
    <path d="M78.4783 34.4521C76.3931 34.4521 74.4367 35.2603 72.9693 36.7284L47.9651 61.7399L42.0316 55.804C40.5644 54.3364 38.6081 53.5282 36.523 53.5282C34.4378 53.5282 32.4812 54.3368 31.0143 55.8044C29.5467 57.2725 28.7383 59.2294 28.7383 61.3151C28.7383 63.4008 29.5464 65.3577 31.014 66.8257L42.4729 78.2879L42.572 78.3852C42.5891 78.4021 42.6068 78.4185 42.6246 78.4349L42.7254 78.5281C42.74 78.5423 42.7553 78.5557 42.7705 78.5688L42.8739 78.6595C42.888 78.6717 42.9019 78.684 42.9163 78.6955L43.0212 78.7836C43.0351 78.7948 43.0488 78.8065 43.063 78.8179L43.1692 78.9029C43.1879 78.9179 43.207 78.9323 43.2258 78.9469L43.3341 79.0285C43.3514 79.0417 43.3691 79.0541 43.3869 79.0669L43.4967 79.1451C43.5118 79.1554 43.5268 79.1662 43.5421 79.1765L43.6533 79.2516C43.669 79.2623 43.6849 79.2727 43.7007 79.283L43.8139 79.3556C43.8309 79.3664 43.8482 79.3772 43.8653 79.3879L43.9796 79.4571C43.9987 79.4688 44.0183 79.4801 44.0376 79.4915L44.153 79.5569C44.1683 79.5657 44.1833 79.5742 44.1988 79.5825L44.3154 79.6454C44.3323 79.6542 44.3489 79.6632 44.3657 79.6719L44.4836 79.7319C44.5027 79.7418 44.5221 79.751 44.5414 79.7605L44.6606 79.8171C44.6779 79.8254 44.6957 79.8335 44.7134 79.8416L44.8334 79.8955C44.8516 79.9034 44.87 79.9112 44.8884 79.9195L45.0101 79.9701C45.0259 79.9766 45.042 79.9833 45.0577 79.9898L45.1795 80.0375C45.1993 80.0449 45.2188 80.0525 45.2386 80.0595L45.3625 80.1047C45.3825 80.1116 45.4023 80.1188 45.4223 80.1253L45.5458 80.1667C45.5631 80.1723 45.5809 80.1779 45.5986 80.1835L45.7235 80.2219C45.743 80.228 45.7628 80.2336 45.7828 80.2392L45.9083 80.2745C45.9216 80.2783 45.9348 80.2819 45.9483 80.2853L46.0739 80.3181C46.099 80.3246 46.1244 80.3309 46.1496 80.3368L46.2769 80.3653C46.2909 80.3687 46.3046 80.3714 46.3185 80.3741L46.4458 80.4006C46.4692 80.4053 46.4921 80.41 46.5152 80.4138L46.5855 80.4266C46.6242 80.4345 46.663 80.4412 46.7026 80.4473L46.8308 80.4671C46.8454 80.4691 46.8598 80.4713 46.8744 80.4731L47.0031 80.49C47.0244 80.4929 47.0458 80.4956 47.0671 80.4978L47.1958 80.5116C47.2102 80.5129 47.2248 80.5145 47.2396 80.5154L47.3688 80.5266C47.3935 80.5291 47.4179 80.5309 47.4427 80.5322L47.5723 80.5392C47.5893 80.5401 47.6066 80.5412 47.6235 80.5417L47.7526 80.5464C47.7686 80.5468 47.7847 80.5473 47.8005 80.5473L47.9301 80.5493C47.9415 80.5498 47.9534 80.5497 47.9649 80.5497C47.9763 80.5497 47.9882 80.5498 47.9995 80.5493L48.1291 80.5473C48.1448 80.5473 48.161 80.5468 48.1767 80.5464L48.3061 80.5417C48.3263 80.5412 48.346 80.5403 48.3662 80.5387L48.4958 80.5313C48.5147 80.53 48.534 80.5284 48.5531 80.5271L48.6818 80.5163C48.6987 80.5149 48.7157 80.5129 48.7324 80.5116L48.8615 80.4978C48.8829 80.4954 48.9042 80.4931 48.9253 80.4904L49.0545 80.4731C49.0697 80.4713 49.0852 80.4689 49.1005 80.4666L49.2283 80.4475C49.2676 80.4415 49.3067 80.4343 49.3453 80.4264L49.4154 80.4143C49.4376 80.41 49.4603 80.406 49.4823 80.401L49.6099 80.375C49.6274 80.3711 49.6447 80.3675 49.6622 80.3633L49.7892 80.3343C49.8076 80.33 49.8258 80.3255 49.844 80.3206L49.9702 80.2882C49.9875 80.284 50.005 80.2795 50.0225 80.2741L50.1479 80.239C50.1683 80.2334 50.1881 80.2278 50.2083 80.2217L50.3329 80.1828C50.3507 80.1779 50.3682 80.1721 50.3862 80.166L50.5101 80.1247C50.5295 80.1181 50.5492 80.111 50.5686 80.104L50.6925 80.0588C50.7087 80.0528 50.7249 80.0467 50.7413 80.0406L50.8632 79.9935C50.8855 79.9847 50.9082 79.9757 50.9299 79.9663L51.0512 79.9153C51.0625 79.9105 51.0737 79.9054 51.0847 79.9009L51.2053 79.8474C51.2289 79.8371 51.2516 79.8267 51.2745 79.8155L51.3931 79.7589C51.4097 79.751 51.4261 79.7425 51.4425 79.7344L51.5609 79.674C51.5788 79.6652 51.5968 79.6558 51.6148 79.6459L51.7314 79.583C51.7466 79.5746 51.7621 79.5661 51.7772 79.5573L51.8926 79.492C51.9128 79.4803 51.9326 79.4684 51.9524 79.4565L52.0667 79.3873C52.0844 79.3765 52.1024 79.3652 52.1204 79.354L52.2331 79.2814C52.2464 79.2727 52.2594 79.2641 52.2727 79.2554L52.3843 79.1803C52.4009 79.1691 52.4173 79.1574 52.4337 79.146L52.5435 79.0678C52.562 79.0545 52.5799 79.0417 52.5981 79.028L52.7062 78.9464C52.7246 78.9323 52.7428 78.9184 52.7607 78.9038L52.867 78.8188C52.8784 78.8094 52.8899 78.8002 52.9016 78.7907L53.0065 78.7038C53.0366 78.6786 53.0664 78.6528 53.0954 78.6261L53.161 78.5681C53.1733 78.5573 53.1859 78.5461 53.1978 78.5348L53.2994 78.4416C53.3175 78.4247 53.3357 78.4079 53.3537 78.3901L53.4525 78.2938C53.4712 78.276 53.4894 78.2574 53.5073 78.2387L83.9871 47.7502C85.454 46.2826 86.262 44.3256 86.2617 42.2399C86.2617 40.1538 85.4536 38.1969 83.9864 36.7297C82.52 35.2603 80.5636 34.4521 78.4783 34.4521ZM80.5982 44.3586L50.0708 74.8948L49.9008 75.0503L49.4931 75.3401L49.0295 75.5612L48.4516 75.714L47.9651 75.7529L47.8939 75.752L47.3861 75.6976L46.8971 75.5594L46.3769 75.3033L45.9548 74.9849L34.4038 63.4351C33.8416 62.8728 33.5319 62.1203 33.5319 61.3151C33.5319 60.5103 33.8416 59.7576 34.4041 59.195C34.9658 58.6327 35.7183 58.323 36.5233 58.323C37.3278 58.323 38.0805 58.6326 38.6424 59.1946L46.2704 66.8257C46.7199 67.2753 47.3297 67.5283 47.9653 67.5283C48.601 67.5283 49.2106 67.2753 49.6602 66.8257L76.3594 40.1185C76.9213 39.5566 77.6738 39.247 78.4788 39.247C79.2831 39.247 80.0358 39.5566 80.5984 40.119C81.1602 40.6809 81.4697 41.4333 81.4697 42.2384C81.4688 43.0438 81.1597 43.7967 80.5982 44.3586Z" fill="#00CB77"/>
</svg>
