<svg width="36" height="36" viewBox="0 0 36 36" fill="none" xmlns="http://www.w3.org/2000/svg">
<path d="M9.15701 10.0929C8.80882 9.74468 8.81766 9.18234 9.16566 8.83434C9.51366 8.48634 10.067 8.48649 10.4152 8.83467L17.9949 16.4144L25.571 8.83821C25.9196 8.49077 26.4909 8.49093 26.8391 8.83912C27.1873 9.1873 27.1785 9.74965 26.8305 10.0976L19.2543 17.6738L26.834 25.2535C27.1822 25.6017 27.1913 26.164 26.8433 26.512C26.4953 26.86 25.924 26.8599 25.5758 26.5117L17.9961 18.932L10.42 26.5081C10.072 26.8561 9.50963 26.865 9.16145 26.5168C8.81326 26.1686 8.81311 25.5973 9.1611 25.2493L16.7372 17.6731L9.15701 10.0929Z" fill="white"/>
</svg>
