<svg width="22" height="16" viewBox="0 0 22 16" xmlns="http://www.w3.org/2000/svg">
<path d="M20.194 7.60592L19.4531 4.70197C19.7164 4.4551 19.8516 4.12763 19.8516 3.78947C19.8516 3.09293 19.2733 2.52632 18.5625 2.52632H15.125V1.26316C15.125 0.566612 14.5468 0 13.8359 0H1.28906C0.578232 0 0 0.566612 0 1.26316V12.2105C0 12.9071 0.578232 13.4737 1.28906 13.4737H2.83594C2.83594 14.8668 3.9924 16 5.41406 16C6.83572 16 7.99219 14.8668 7.99219 13.4737H15.9844C15.9844 14.8668 17.1408 16 18.5625 16C19.9842 16 21.1406 14.8668 21.1406 13.4737C21.1406 13.4497 21.1395 13.4258 21.1388 13.4018C21.6398 13.2286 22 12.76 22 12.2105V9.68421C22 8.6375 21.2165 7.76711 20.194 7.60592ZM18.6567 5.05263L19.3012 7.57895H15.7326L16.7179 6.61349C16.8857 6.44901 16.8857 6.18257 16.7179 6.01809C16.55 5.85362 16.2781 5.85362 16.1103 6.01809L15.125 6.98339V5.05263H18.6567ZM18.9922 3.78947C18.9922 4.02188 18.7997 4.21053 18.5625 4.21053H15.125V3.36842H18.5625C18.7995 3.36842 18.9922 3.55724 18.9922 3.78947ZM5.41406 15.1579C4.4664 15.1579 3.69531 14.4023 3.69531 13.4737C3.69531 12.5324 4.48033 11.7895 5.41406 11.7895C6.34998 11.7895 7.13281 12.5344 7.13281 13.4737C7.13281 14.4023 6.36172 15.1579 5.41406 15.1579ZM7.84465 12.6316C7.48579 11.638 6.51447 10.9474 5.41406 10.9474C4.31316 10.9474 3.34149 11.6385 2.98331 12.6316H1.28906C1.05206 12.6316 0.859375 12.4428 0.859375 12.2105V1.26316C0.859375 1.03092 1.05206 0.842105 1.28906 0.842105H13.8359C14.0729 0.842105 14.2656 1.03092 14.2656 1.26316V12.6316H7.84465ZM18.5625 15.1579C17.6148 15.1579 16.8438 14.4023 16.8438 13.4737C16.8438 12.5324 17.6288 11.7895 18.5625 11.7895C19.4984 11.7895 20.2812 12.5344 20.2812 13.4737C20.2812 14.4023 19.5102 15.1579 18.5625 15.1579ZM20.9625 12.5512C20.5814 11.6008 19.633 10.9474 18.5625 10.9474C17.4616 10.9474 16.4899 11.6385 16.1317 12.6316H15.125V8.42105H19.8516C20.4117 8.42105 20.8894 8.77303 21.0668 9.26316H19.8516C19.6142 9.26316 19.4219 9.45164 19.4219 9.68421C19.4219 9.91678 19.6142 10.1053 19.8516 10.1053H21.1406V12.2105C21.1406 12.3505 21.0701 12.4745 20.9625 12.5512Z" />
</svg>
