<svg width="13" height="20" viewBox="0 0 13 20" fill="none" 
    xmlns="http://www.w3.org/2000/svg">
    <path d="M12.425 19.6554C12.2696 18.2081 12.0303 16.7711 11.7083 15.3516C11.1718 12.6063 10.1704 9.97252 8.74707 7.56343V6.35998L9.74318 2.05623C9.75244 2.01262 9.75244 1.96755 9.74318 1.92393L9.40955 0.251849C9.39442 0.18149 9.35591 0.118309 9.30026 0.0725836C9.24462 0.0268576 9.17511 0.00127624 9.10305 0L8.09896 0C8.01429 0 7.93309 0.0335873 7.87321 0.0933732C7.81334 0.153159 7.7797 0.234246 7.7797 0.318796V1.91278C7.23566 2.14746 6.76915 2.53095 6.434 3.019H6.42122C6.42122 3.019 6.41005 3.019 6.40846 3.019C6.07337 2.53089 5.60683 2.14739 5.06275 1.91278V0.318796C5.06275 0.276931 5.0545 0.235476 5.03845 0.196798C5.02241 0.15812 4.99889 0.122976 4.96924 0.0933732C4.93959 0.0637702 4.9044 0.0402879 4.86567 0.0242669C4.82693 0.0082459 4.78542 0 4.74349 0L3.75855 0C3.68622 0.00091869 3.61635 0.0263374 3.56037 0.0720927C3.5044 0.117848 3.46565 0.181227 3.45047 0.251849L3.11523 1.92234C3.10596 1.96595 3.10596 2.01102 3.11523 2.05464L4.11134 6.35838V7.56662C2.68804 9.97571 1.68663 12.6095 1.15016 15.3548C0.828096 16.7743 0.588769 18.2113 0.4334 19.6585C0.430329 19.7023 0.436311 19.7461 0.450975 19.7874C0.465638 19.8287 0.488671 19.8665 0.518629 19.8985C0.548587 19.9305 0.584831 19.956 0.625098 19.9734C0.665365 19.9908 0.708798 19.9998 0.752673 19.9997H12.1249C12.1688 19.9998 12.2122 19.9908 12.2525 19.9734C12.2927 19.956 12.329 19.9305 12.3589 19.8985C12.3889 19.8665 12.4119 19.8287 12.4266 19.7874C12.4413 19.7461 12.4472 19.7023 12.4442 19.6585L12.425 19.6554ZM8.41184 0.626434H8.84445L9.04878 1.64817C8.83426 1.65115 8.62049 1.67409 8.41025 1.71672V0.626434H8.41184ZM4.00759 0.626434H4.44018V1.71831C4.22994 1.67564 4.01617 1.65269 3.80165 1.64977L4.00759 0.626434ZM3.80484 2.2762C4.21678 2.27972 4.62189 2.3817 4.98627 2.5736C5.35064 2.7655 5.6637 3.04175 5.89923 3.37924C5.95922 3.46282 6.0383 3.53093 6.12991 3.57791C6.22152 3.6249 6.32303 3.6494 6.42602 3.6494C6.52901 3.6494 6.6305 3.6249 6.72212 3.57791C6.81373 3.53093 6.8928 3.46282 6.9528 3.37924C7.1873 3.0406 7.5001 2.7634 7.86468 2.57111C8.22926 2.37882 8.63488 2.27711 9.04718 2.27461L8.18357 6.01249H4.67166L3.80484 2.2762ZM8.11493 6.63892V7.34825H4.72912V6.63733L8.11493 6.63892ZM1.09109 19.3716C1.51028 15.3809 2.69963 11.509 4.59343 7.9699H5.05796L4.44497 11.9548C4.43384 12.0366 4.4549 12.1195 4.50372 12.1861C4.55255 12.2527 4.62533 12.2978 4.70677 12.3119H4.75466C4.8293 12.3107 4.90116 12.2834 4.95774 12.2348C5.01432 12.1861 5.05204 12.1192 5.06435 12.0457L5.69171 7.9699H6.11314V14.3458C6.10439 14.3919 6.10593 14.4393 6.11765 14.4847C6.12937 14.5302 6.15097 14.5724 6.18093 14.6085C6.21089 14.6447 6.24845 14.6737 6.29095 14.6937C6.33346 14.7136 6.37985 14.724 6.42681 14.724C6.47378 14.724 6.52017 14.7136 6.56267 14.6937C6.60517 14.6737 6.64274 14.6447 6.67269 14.6085C6.70265 14.5724 6.72426 14.5302 6.73597 14.4847C6.74769 14.4393 6.74924 14.3919 6.74049 14.3458V7.9699H7.16192L7.78928 12.0457C7.80158 12.1192 7.83931 12.1861 7.89589 12.2348C7.95247 12.2834 8.02432 12.3107 8.09896 12.3119H8.14685C8.22829 12.2978 8.30107 12.2527 8.3499 12.1861C8.39873 12.1195 8.41979 12.0366 8.40865 11.9548L7.79566 7.9699H8.26019C10.1529 11.5077 11.3422 15.3779 11.7625 19.3668L1.09109 19.3716Z" fill="#7C8495"/>
</svg>
