<svg width="26" height="24" viewBox="0 0 26 24" fill="none" xmlns="http://www.w3.org/2000/svg">
<path d="M18.042 3.51464L18.146 2.81172C22.4111 2.41004 25.1678 1.60669 25.3238 1.60669C25.7399 1.45607 26 1.05439 25.896 0.602511C25.7399 0.200837 25.3238 -0.0502081 24.8557 0.0502103C24.8037 0.0502103 22.3071 0.75314 18.4581 1.15481L18.6141 0.351465C18.6661 0.200837 18.5101 0 18.302 0H17.5218H16.7416C16.5856 0 16.4296 0.150628 16.4296 0.351465L16.5856 1.30544C15.4413 1.40586 14.193 1.45607 12.8926 1.45607C11.6443 1.45607 10.396 1.40586 9.30373 1.30544L9.45977 0.351465C9.51178 0.200837 9.35574 0 9.14769 0H8.36749H7.58729C7.43125 0 7.27521 0.150628 7.27521 0.351465L7.43125 1.15481C3.68629 0.803349 1.13764 0.100419 1.08563 0.100419C0.669524 -0.0502088 0.201404 0.200838 0.0453643 0.652721C-0.110676 1.05439 0.149391 1.50628 0.61751 1.65691C0.77355 1.70711 3.58227 2.51046 7.89937 2.91214L8.0034 3.56485H7.95139C0.0453641 7.58159 0.0453643 7.83264 0.0453643 8.38494C0.0453643 8.48536 0.0453642 8.83682 0.981604 11.1967C1.96986 13.6067 2.17791 13.9582 2.80207 13.9582C3.06214 13.9582 3.27019 13.8577 4.8826 13.1548C4.98663 13.1046 5.14267 13.0544 5.24669 13.0042C5.24669 14.159 5.24669 16.6695 5.19468 22.0418V22.1925C5.19468 22.6444 5.50676 23.0962 5.97488 23.2469C6.65105 23.4979 8.73158 24 12.9447 24C17.1057 24 19.2903 23.4477 20.0185 23.2469C20.4866 23.0962 20.7987 22.6946 20.7987 22.1925V22.0418C20.6946 16.7197 20.6946 14.2092 20.7467 13.0042C20.9027 13.0544 21.0067 13.1046 21.1628 13.1548C22.7752 13.8577 22.9832 13.9582 23.2433 13.9582C23.8675 13.9582 24.1275 13.6067 25.0638 11.1967C26 8.83682 26 8.48536 26 8.38494C25.948 7.83264 25.948 7.58159 18.042 3.51464ZM12.9967 3.06276C14.401 3.06276 15.7534 3.01255 16.9497 2.91214L17.0537 3.56485L16.9497 3.71548C15.3893 5.4728 13.5688 6.97908 12.9967 6.97908C12.4245 6.97908 10.552 5.4728 9.04366 3.71548L8.99165 3.66527L9.09568 2.96234C10.292 3.01255 11.5923 3.06276 12.9967 3.06276ZM22.7752 12.1506C22.4631 12 22.047 11.8494 21.7869 11.6987C20.3305 11.046 20.1745 10.9958 19.9665 10.9958H19.6024L19.3423 11.2469C19.0302 11.5481 18.9262 11.6485 19.0822 21.7908C18.198 21.9916 16.2735 22.3933 12.8926 22.3933C9.5638 22.3933 7.69132 22.0418 6.85911 21.841C7.01515 11.6987 6.96313 11.5983 6.59904 11.2971L6.33897 11.046H5.97488C5.71481 11.046 5.61079 11.0962 4.15441 11.749C3.84233 11.8996 3.47824 12.0502 3.16616 12.2008C2.75006 11.2971 2.07388 9.53975 1.7618 8.7364C2.69804 8.13389 5.50676 6.62761 8.15944 5.27197C9.25172 6.42678 11.4883 8.58577 12.9447 8.58577C14.401 8.58577 16.6376 6.42678 17.7299 5.27197C20.3826 6.62761 23.1913 8.13389 24.1275 8.7364C23.9195 9.48954 23.1913 11.2971 22.7752 12.1506Z" />
</svg>
