<svg width="34" height="37" viewBox="0 0 34 37" fill="none" xmlns="http://www.w3.org/2000/svg">
<path d="M17.6124 24.0527H16.3984V25.2857H17.6124V24.0527Z" fill="#666666"/>
<path d="M3.65145 31.4512H2.4375V32.6842H3.65145V31.4512Z" fill="#666666"/>
<path d="M4.25887 28.9854H3.04492V30.2183H4.25887V28.9854Z" fill="#666666"/>
<path d="M29.7512 9.1349C29.6905 8.8883 29.5691 8.70335 29.3263 8.6417L22.6496 6.79221C22.5889 6.79221 22.5282 6.79221 22.4675 6.79221H17.6117V5.74417L19.3112 3.46313C19.3719 3.33983 19.4326 3.21653 19.4326 3.09323V2.47673C19.4326 1.12044 18.34 0.0107422 17.0047 0.0107422C15.6693 0.0107422 14.5768 1.12044 14.5768 2.47673V3.09323H15.7907V2.47673C15.7907 1.79858 16.337 1.24374 17.0047 1.24374C17.6724 1.24374 18.2186 1.79858 18.2186 2.47673V2.90828L16.5191 5.18932C16.4584 5.31262 16.3977 5.43592 16.3977 5.55922V6.79221H11.5419C11.4812 6.79221 11.4205 6.79221 11.3598 6.79221L4.68308 8.6417C4.44029 8.70335 4.25819 8.8883 4.25819 9.1349L0.00936328 35.0278C-0.0513343 35.336 0.191456 35.7059 0.494944 35.7676C0.555641 35.7676 0.555641 35.7676 0.616339 35.7676H4.86517C5.16866 35.7676 5.41145 35.5826 5.47214 35.2744L7.90005 22.8828V36.3841C7.90005 36.754 8.14284 37.0006 8.50702 37.0006H26.1093C26.4735 37.0006 26.7163 36.754 26.7163 36.3841V24.4857L28.5372 35.2744C28.5979 35.5826 28.8407 35.7676 29.1442 35.7676H33.393C33.7572 35.7676 34 35.521 34 35.1511C34 35.0894 34 35.0894 34 35.0278L29.7512 9.1349ZM21.9819 8.02521L22.953 13.5737H21.2535C20.8893 13.5737 20.6465 13.8203 20.6465 14.1902C20.6465 14.3135 20.6465 14.3751 20.7072 14.4984L21.7391 16.5329L18.0365 19.9236L20.5251 8.02521H21.9819ZM17.0047 18.6906L15.2445 10.4912H18.7649L17.0047 18.6906ZM19.2505 8.02521L18.947 9.2582H15.0624L14.7589 8.02521H19.2505ZM12.0882 8.02521H13.4842L15.9728 19.677L12.8166 16.4712L13.3628 14.3135C13.4235 14.0052 13.2414 13.6353 12.9379 13.5737C12.8772 13.5737 12.8166 13.5737 12.8166 13.5737H11.117L12.0882 8.02521ZM4.37959 34.5346H1.34471L5.16866 11.231L7.90005 16.7178L4.37959 34.5346ZM15.4872 35.7676L17.0047 32.3768L18.5221 35.7676H15.4872ZM25.5023 30.8356H23.0744V29.6026H25.5023V30.8356ZM25.5023 22.2046H23.0744V20.9716H25.5023V22.2046ZM25.563 17.0877C25.563 17.1494 25.5023 17.211 25.5023 17.3343V19.8003H22.4675C22.1033 19.8003 21.8605 20.0469 21.8605 20.4168V22.8828C21.8605 23.2527 22.1033 23.4993 22.4675 23.4993H25.5023V28.4313H22.4675C22.1033 28.4313 21.8605 28.6779 21.8605 29.0478V31.5137C21.8605 31.8836 22.1033 32.1302 22.4675 32.1302H25.5023V35.8292H19.8575V35.7676L17.6117 30.589C17.4903 30.2808 17.1261 30.1575 16.8226 30.2808C16.7012 30.3424 16.5798 30.4657 16.5191 30.589L14.2126 35.7676H9.114V32.0686H12.1489C12.5131 32.0686 12.7559 31.822 12.7559 31.4521V28.9861C12.7559 28.6162 12.5131 28.3696 12.1489 28.3696H9.114V16.6562C9.114 16.5329 9.114 16.4712 9.0533 16.4096L5.71493 9.68975L10.7528 8.2718L9.72097 14.0669C9.66028 14.3751 9.90307 14.745 10.2066 14.8067C10.2673 14.8067 10.2673 14.8067 10.328 14.8067H11.9668L11.5419 16.5329C11.4812 16.7178 11.5419 16.9644 11.724 17.1494L16.3977 21.8964C16.7619 22.2046 17.2475 22.2046 17.6117 21.8964L22.8923 17.1494C23.0744 16.9644 23.1351 16.6562 23.0137 16.4096L22.2247 14.8067H23.6814C24.0456 14.8067 24.2884 14.5601 24.2884 14.1902C24.2884 14.1285 24.2884 14.1285 24.2884 14.0669L23.2565 8.2718L28.3551 9.68975L25.563 17.0877ZM9.114 30.8356V29.6026H11.5419V30.8356H9.114ZM29.6298 34.5346L26.7163 17.3343L28.9014 11.6009L32.6647 34.5346H29.6298Z" fill="#666666"/>
<path d="M31.5714 32.0674H30.3574V33.3004H31.5714V32.0674Z" fill="#666666"/>
<path d="M30.9659 29.6016H29.752V30.8346H30.9659V29.6016Z" fill="#666666"/>
<path d="M17.6124 27.1357H16.3984V28.3687H17.6124V27.1357Z" fill="#666666"/>
<path d="M7.29396 2.9687C7.23327 2.7221 7.05117 2.53715 6.80838 2.4755C5.83722 2.29055 5.04815 1.55075 4.86606 0.502708C4.80536 0.194459 4.50188 -0.0521396 4.13769 0.00951016C3.8949 0.0711599 3.71281 0.256109 3.65211 0.502708C3.47002 1.55075 2.74165 2.29055 1.70979 2.4755C1.4063 2.53715 1.16351 2.8454 1.22421 3.2153C1.2849 3.46189 1.467 3.64684 1.70979 3.70849C2.68095 3.89344 3.47002 4.63324 3.65211 5.68128C3.71281 5.98953 4.01629 6.23613 4.38048 6.17448C4.62327 6.11283 4.80536 5.92788 4.86606 5.68128C5.04815 4.69489 5.77652 3.89344 6.80838 3.70849C7.11187 3.64684 7.35466 3.33859 7.29396 2.9687ZM4.25909 3.95509C4.0163 3.58519 3.71281 3.33859 3.40932 3.092C3.71281 2.8454 4.0163 2.53715 4.25909 2.2289C4.50188 2.5988 4.80536 2.8454 5.10885 3.092C4.74467 3.33859 4.50188 3.64684 4.25909 3.95509Z" fill="#666666"/>
</svg>
