<svg width="15" height="14" viewBox="0 0 15 14" fill="none" 
    xmlns="http://www.w3.org/2000/svg">
    <path d="M14.466 13.0068H0.535738C0.242872 13.0068 0.0136719 13.2369 0.0136719 13.5034C0.0136719 13.7698 0.255605 13.9999 0.535738 13.9999H14.4787C14.7716 13.9999 15.0008 13.7698 15.0008 13.5034C15.0008 13.2369 14.7589 13.0068 14.466 13.0068Z" fill="#01136D"/>
    <path d="M0.0127333 8.61073L0 10.9723C0 11.1055 0.0509333 11.2388 0.1528 11.3356C0.254666 11.4325 0.381999 11.481 0.522066 11.481L2.99233 11.4689C3.13239 11.4689 3.25973 11.4204 3.36159 11.3235L11.8929 3.20934C12.0966 3.01557 12.0966 2.70069 11.8929 2.49481L9.44811 0.145329C9.24438 -0.0484429 8.91331 -0.0484429 8.69685 0.145329L6.99059 1.78028L0.165533 8.25951C0.0763999 8.3564 0.0127333 8.47751 0.0127333 8.61073ZM9.07885 1.21107L10.7978 2.84602L9.83011 3.76644L8.11112 2.13149L9.07885 1.21107ZM1.0696 8.82872L7.35985 2.84602L9.07885 4.48097L2.78859 10.4516L1.05686 10.4637L1.0696 8.82872Z" fill="#01136D"/>
</svg>
