<svg width="16" height="14" viewBox="0 0 16 14" fill="none" xmlns="http://www.w3.org/2000/svg">
<path d="M7.88302 2.07447L7.88281 2.07416L7.88126 2.07201L7.86984 2.05644C7.85884 2.04163 7.84113 2.0183 7.81693 1.98797C7.76846 1.92721 7.69442 1.83892 7.59661 1.73509C7.39993 1.52631 7.11306 1.26102 6.7509 1.02981C6.03474 0.572605 5.0444 0.255862 3.83289 0.749918L3.83286 0.749927C1.74315 1.602 0.865825 4.17464 1.85321 6.28643L7.88302 2.07447ZM7.88302 2.07447L7.88307 2.07454M7.88302 2.07447L7.88307 2.07454M7.88307 2.07454L7.88312 2.0746L8.29051 2.6588M7.88307 2.07454L8.29051 2.6588M8.29051 2.6588L8.70057 2.07647M8.29051 2.6588L8.70057 2.07647M8.70057 2.07647L8.70061 2.07641M8.70057 2.07647L8.70061 2.07641M8.70061 2.07641L8.70067 2.07633M8.70061 2.07641L8.70067 2.07633M8.70067 2.07633L8.70088 2.07603M8.70067 2.07633L8.70088 2.07603M8.70088 2.07603L8.70108 2.07575M8.70088 2.07603L8.70108 2.07575M8.70108 2.07575L8.70245 2.07387L8.71395 2.05832C8.72504 2.04355 8.74288 2.02026 8.76725 1.99C8.81605 1.92938 8.89059 1.84128 8.989 1.7377C9.18688 1.52941 9.47542 1.26471 9.83934 1.03407C10.5593 0.57779 11.5535 0.262295 12.7656 0.756288L8.70108 2.07575ZM14.7452 6.29283C15.7326 4.18105 14.8553 1.60842 12.7656 0.756314L14.7452 6.29283ZM14.7452 6.29283C13.8758 8.15217 12.0234 10.6342 8.29251 13.3814M14.7452 6.29283L8.29251 13.3814M8.29251 13.3814C4.56352 10.635 2.72323 8.14674 1.85322 6.28647L8.29251 13.3814Z" stroke="white"/>
</svg>
