<svg width="20" height="11" viewBox="0 0 20 11" fill="none" xmlns="http://www.w3.org/2000/svg">
<g id="Icon : card">
<path id="Stroke 419" fill-rule="evenodd" clip-rule="evenodd" d="M19 10.1353C19 10.3221 18.808 10.4737 18.5714 10.4737H1.42857C1.192 10.4737 1 10.3221 1 10.1353V1.33835C1 1.15158 1.192 1 1.42857 1H18.5714C18.808 1 19 1.15158 19 1.33835V10.1353V10.1353Z" stroke="#EDF0F7" stroke-linecap="round" stroke-linejoin="round"/>
<path id="Stroke 420" fill-rule="evenodd" clip-rule="evenodd" d="M12.1431 5.54675C12.1431 6.59769 11.1836 7.44995 10.0003 7.44995C8.81699 7.44995 7.85742 6.59769 7.85742 5.54675C7.85742 4.49581 8.81699 3.64355 10.0003 3.64355C11.1836 3.64355 12.1431 4.49581 12.1431 5.54675V5.54675Z" stroke="#EDF0F7" stroke-linecap="round" stroke-linejoin="round"/>
</g>
</svg>
