<svg width="35" height="32" viewBox="0 0 35 32" fill="none" 
    xmlns="http://www.w3.org/2000/svg">
    <path d="M34.6278 12.3229L18.0372 0.175649C17.7173 -0.0585497 17.2827 -0.0585497 16.9629 0.175649L0.372256 12.3229C-0.032978 12.6196 -0.121025 13.1887 0.175723 13.5939C0.47247 13.9991 1.04156 14.087 1.44673 13.7904L17.5 2.03646L33.5533 13.7904C33.7152 13.909 33.9033 13.966 34.0898 13.966C34.3698 13.966 34.6461 13.8372 34.8242 13.5938C35.121 13.1887 35.033 12.6196 34.6278 12.3229Z" fill="black" fill-opacity="0.5"/>
    <path d="M30.2281 13.998C29.7259 13.998 29.3187 14.4052 29.3187 14.9074V29.3824H22.0437V21.4811C22.0437 18.9736 20.0038 16.9338 17.4965 16.9338C14.9892 16.9338 12.9492 18.9738 12.9492 21.4811V29.3825H5.67423V14.9075C5.67423 14.4053 5.26702 13.9981 4.76485 13.9981C4.26268 13.9981 3.85547 14.4053 3.85547 14.9075V30.292C3.85547 30.7942 4.26268 31.2013 4.76485 31.2013H13.8586C14.3369 31.2013 14.7282 30.8319 14.7644 30.3628C14.7666 30.3415 14.768 30.3183 14.768 30.292V21.4811C14.768 19.9766 15.992 18.7526 17.4965 18.7526C19.001 18.7526 20.225 19.9767 20.225 21.4811V30.292C20.225 30.3181 20.2263 30.341 20.2285 30.362C20.2644 30.8314 20.6558 31.2013 21.1344 31.2013H30.2281C30.7304 31.2013 31.1375 30.7942 31.1375 30.292V14.9075C31.1374 14.4052 30.7303 13.998 30.2281 13.998Z" fill="black" fill-opacity="0.5"/>
</svg>
