<svg width="21" height="20" viewBox="0 0 21 20" fill="none" 
    xmlns="http://www.w3.org/2000/svg">
    <path d="M15.0235 7.66602H14.6902C14.4245 7.66602 14.1697 7.7714 13.9818 7.95898C13.794 8.14655 13.6885 8.40096 13.6885 8.66624V13.6657C13.6893 14.2843 13.9358 14.8773 14.3738 15.3147C14.8119 15.7521 15.4057 15.9982 16.0252 15.9991H16.3586C16.6242 15.9991 16.879 15.8937 17.0669 15.7061C17.2548 15.5185 17.3603 15.2641 17.3603 14.9989V9.99932C17.3598 9.38062 17.1135 8.78737 16.6754 8.34988C16.2372 7.91239 15.6431 7.66644 15.0235 7.66602ZM14.3552 9.66646H14.6886C14.777 9.66646 14.8617 9.70152 14.9243 9.76394C14.9868 9.82637 15.0219 9.91104 15.0219 9.99932V11.9998C15.0219 12.0881 14.9868 12.1727 14.9243 12.2352C14.8617 12.2976 14.777 12.3327 14.6886 12.3327H14.3552V9.66646ZM16.692 14.9989C16.692 15.0871 16.6568 15.1718 16.5943 15.2342C16.5318 15.2967 16.447 15.3317 16.3586 15.3317H16.0284C15.5862 15.3309 15.1623 15.1551 14.8496 14.8428C14.5369 14.5306 14.3609 14.1073 14.36 13.6657V12.9984H14.6934C14.959 12.9984 15.2138 12.893 15.4017 12.7054C15.5895 12.5179 15.695 12.2635 15.695 11.9982V9.99774C15.695 9.73246 15.5895 9.47805 15.4017 9.29047C15.2138 9.1029 14.959 8.99751 14.6934 8.99751H14.36V8.66463C14.36 8.62091 14.3686 8.57764 14.3854 8.53725C14.4021 8.49687 14.4267 8.46016 14.4576 8.42925C14.4886 8.39834 14.5253 8.37382 14.5658 8.35709C14.6062 8.34036 14.6496 8.33176 14.6934 8.33176H15.0267C15.469 8.33261 15.8928 8.5084 16.2055 8.82064C16.5182 9.13289 16.6943 9.55615 16.6951 9.99774L16.692 14.9989Z" fill="#7C8495"/>
    <path d="M20.0298 4.99952H17.5873L13.3241 0.518516C13.1686 0.355786 12.9819 0.226002 12.7751 0.136915C12.5683 0.0478276 12.3456 0.00126258 12.1204 0H11.0178V0.667349H10.3574V0H9.68269V16.0036H10.3574V15.3314H11.0258V15.9988H12.3608C12.6265 15.9988 12.8813 16.1041 13.0691 16.2917C13.257 16.4793 13.3625 16.7337 13.3625 16.999C13.3639 17.3609 13.4844 17.7124 13.7055 17.9992H0.00390625V19.9997H20.0378V17.9992H19.0281C19.2492 17.7124 19.3697 17.3609 19.3711 16.999V8.59552C19.3711 8.5107 19.3711 8.42268 19.3599 8.33146H20.0378L20.0298 4.99952ZM11.0178 14.6641H10.3574V1.3331H11.0258L11.0178 14.6641ZM12.3528 15.3314H11.6861V0.667349H12.1204C12.2563 0.667751 12.3906 0.695607 12.5154 0.749239C12.6402 0.802872 12.7528 0.881171 12.8464 0.979419L17.201 5.56924L17.6818 6.07816C18.3226 6.7644 18.6828 7.66532 18.6915 8.60352V17.0054C18.6915 17.2707 18.586 17.5251 18.3982 17.7127C18.2103 17.9002 17.9555 18.0056 17.6898 18.0056H15.0245C14.7589 18.0056 14.5041 17.9002 14.3162 17.7127C14.1284 17.5251 14.0228 17.2707 14.0228 17.0054C14.0235 16.7859 13.9808 16.5685 13.8971 16.3655C13.8135 16.1626 13.6906 15.9781 13.5355 15.8226C13.3804 15.6671 13.1961 15.5437 12.9931 15.4594C12.7902 15.3751 12.5726 15.3316 12.3528 15.3314ZM19.3615 18.665V19.3323H0.672238V18.665H19.3615ZM19.3615 7.66731H19.2557C19.2564 7.66146 19.2564 7.65556 19.2557 7.64971C19.219 7.48717 19.173 7.32687 19.1179 7.1696C19.1066 7.13919 19.097 7.10879 19.0842 7.07838C19.0276 6.92543 18.9623 6.77583 18.8887 6.63028L18.8454 6.55026C18.767 6.40067 18.6797 6.25585 18.5842 6.11656L18.5665 6.09256C18.4704 5.95761 18.3666 5.8283 18.2556 5.70527C18.2444 5.69247 18.2348 5.67807 18.2219 5.66526H19.3663V7.66571L19.3615 7.66731Z" fill="#7C8495"/>
    <path d="M16.6915 16.6641H15.3564V17.3314H16.6915V16.6641Z" fill="#7C8495"/>
    <path d="M12.6869 10.6648C12.871 10.6648 13.0202 10.5157 13.0202 10.3319C13.0202 10.1481 12.871 9.99902 12.6869 9.99902C12.5028 9.99902 12.3535 10.1481 12.3535 10.3319C12.3535 10.5157 12.5028 10.6648 12.6869 10.6648Z" fill="#7C8495"/>
    <path d="M12.6869 11.9978C12.871 11.9978 13.0202 11.8487 13.0202 11.6649C13.0202 11.4811 12.871 11.332 12.6869 11.332C12.5028 11.332 12.3535 11.4811 12.3535 11.6649C12.3535 11.8487 12.5028 11.9978 12.6869 11.9978Z" fill="#7C8495"/>
    <path d="M13.0218 12.665H12.3535V14.6655H13.0218V12.665Z" fill="#7C8495"/>
    <path d="M5.00962 6.333V5.33278C5.00962 4.89073 4.83376 4.46678 4.52072 4.1542C4.20767 3.84162 3.7831 3.66602 3.34039 3.66602C2.89769 3.66602 2.47311 3.84162 2.16007 4.1542C1.84703 4.46678 1.67117 4.89073 1.67117 5.33278V6.03534C1.20418 6.11311 0.779946 6.35376 0.473942 6.71449C0.167938 7.07522 0 7.53264 0 8.00539C0 8.47813 0.167938 8.93555 0.473942 9.29628C0.779946 9.65701 1.20418 9.89766 1.67117 9.97542V10.6716C1.67117 11.1136 1.84703 11.5376 2.16007 11.8502C2.47311 12.1627 2.89769 12.3383 3.34039 12.3383C3.7831 12.3383 4.20767 12.1627 4.52072 11.8502C4.83376 11.5376 5.00962 11.1136 5.00962 10.6716V9.67136H4.34289V10.6716C4.34289 10.9369 4.23736 11.1913 4.0495 11.3788C3.86165 11.5664 3.60686 11.6718 3.3412 11.6718C3.07553 11.6718 2.82074 11.5664 2.63289 11.3788C2.44504 11.1913 2.3395 10.9369 2.3395 10.6716V10.0042H3.00783V9.33207H2.00614C1.65206 9.33207 1.31248 9.19162 1.06211 8.94162C0.811734 8.69161 0.671076 8.35254 0.671076 7.99898C0.671076 7.64542 0.811734 7.30634 1.06211 7.05633C1.31248 6.80633 1.65206 6.66588 2.00614 6.66588H3.00783V5.99853H2.3395V5.33118C2.3395 5.06591 2.44504 4.8115 2.63289 4.62392C2.82074 4.43634 3.07553 4.33096 3.3412 4.33096C3.60686 4.33096 3.86165 4.43634 4.0495 4.62392C4.23736 4.8115 4.34289 5.06591 4.34289 5.33118V6.33141L5.00962 6.333Z" fill="#7C8495"/>
    <path d="M9.01423 6.33203H5.67578V6.99938H9.01423V6.33203Z" fill="#7C8495"/>
    <path d="M9.01423 7.66602H5.67578V8.33336H9.01423V7.66602Z" fill="#7C8495"/>
    <path d="M9.01423 8.99902H5.67578V9.66637H9.01423V8.99902Z" fill="#7C8495"/>
</svg>
