<svg width="86" height="98" viewBox="0 0 86 98" fill="none" 
    xmlns="http://www.w3.org/2000/svg">
    <path d="M53.6907 20.4512C51.3725 23.7788 47.5215 25.9848 43.147 25.9848C38.7724 25.9848 34.9213 23.7788 32.6032 20.4512L18.0215 22.5076V87.5646H43.1843H68.3098V22.5076L53.6907 20.4512Z" fill="white"/>
    <path d="M18.0588 22.5078L1.71973 34.8088L11.2539 48.6054L18.0588 44.343V22.5078Z" class="svg-color"/>
    <path d="M68.3096 22.5078L84.6112 34.8088L75.077 48.6054L68.3096 44.343V22.5078Z" class="svg-color"/>
    <path d="M11.254 49.0915C11.1044 49.0915 10.9549 49.0168 10.8427 48.8672L1.30849 35.0332C1.15893 34.8089 1.19631 34.5098 1.42065 34.3602L17.7597 22.0592C17.9092 21.9471 18.0962 21.9471 18.2831 22.0218C18.4327 22.0966 18.5448 22.2836 18.5448 22.4705V44.3431C18.5448 44.5301 18.4701 44.6796 18.3205 44.7544L11.5531 49.0168C11.4409 49.0915 11.3661 49.0915 11.254 49.0915ZM2.39278 34.9211L11.4035 47.9699L17.5727 44.0814V23.48L2.39278 34.9211Z" class="svg-color"/>
    <path d="M75.0777 49.0915C75.0029 49.0915 74.8907 49.0542 74.816 49.0168L68.0485 44.7544C67.899 44.6796 67.8242 44.4927 67.8242 44.3431V22.4705C67.8242 22.2836 67.9364 22.0966 68.0859 22.0218C68.2355 21.9471 68.4598 21.9471 68.6094 22.0592L84.9484 34.3602C85.1727 34.5098 85.2101 34.8089 85.0606 35.0332L75.5264 48.8672C75.3768 49.0168 75.2272 49.0915 75.0777 49.0915ZM68.7963 44.0814L74.9655 47.9699L83.9763 34.9211L68.7963 23.48V44.0814Z" class="svg-color"/>
    <path d="M68.3102 88.0509H18.0593C17.7976 88.0509 17.5732 87.8266 17.5732 87.5649V22.5079C17.5732 22.2461 17.7602 22.0592 17.9845 22.0218L32.5663 19.9654C32.7532 19.928 32.9402 20.0028 33.0523 20.1897C35.3705 23.5174 39.1467 25.499 43.1848 25.499C47.2228 25.499 50.9991 23.5174 53.3172 20.1897C53.4294 20.0402 53.6163 19.9654 53.8033 19.9654L68.385 22.0218C68.6093 22.0592 68.7963 22.2461 68.7963 22.5079V87.5649C68.7963 87.8266 68.572 88.0509 68.3102 88.0509ZM18.5453 87.0788H67.8242V22.9191L53.9528 20.9749C51.4477 24.4147 47.4471 26.4711 43.1848 26.4711C38.9224 26.4711 34.9218 24.4147 32.4167 20.9749L18.5453 22.9191V87.0788Z" class="svg-color"/>
    <path d="M53.6909 21.1996C53.6161 21.1996 53.5413 21.1996 53.4665 21.1622L43.1472 18.2085L32.8278 21.1622C32.4165 21.2744 32.0052 21.05 31.893 20.6387C31.7809 20.2275 32.0052 19.8162 32.4165 19.704L42.9602 16.6755C43.1098 16.6381 43.2219 16.6381 43.3715 16.6755L53.9152 19.704C54.3265 19.8162 54.5508 20.2275 54.4386 20.6387C54.3265 20.9752 54.0274 21.1996 53.6909 21.1996Z" class="svg-color"/>
    <path d="M43.1843 18.1708C42.773 18.1708 42.4365 17.8343 42.4365 17.423V11.6277C42.4365 11.2164 42.773 10.8799 43.1843 10.8799C43.5956 10.8799 43.9321 11.2164 43.9321 11.6277V17.423C43.9321 17.8343 43.5956 18.1708 43.1843 18.1708Z" class="svg-color"/>
    <path d="M43.2964 12.4132C42.8851 12.4132 42.5486 12.0767 42.5486 11.6654C42.5486 11.2541 42.8851 10.9176 43.2964 10.9176C45.8763 10.9176 48.0075 8.82383 48.0075 6.20659C48.0075 3.62674 45.9137 1.49556 43.2964 1.49556C40.7166 1.49556 38.5854 3.58935 38.5854 6.20659C38.5854 6.61787 38.2489 6.95437 37.8376 6.95437C37.4263 6.95437 37.0898 6.61787 37.0898 6.20659C37.0898 2.76679 39.8566 0 43.2964 0C46.7362 0 49.503 2.76679 49.503 6.20659C49.503 9.609 46.6988 12.4132 43.2964 12.4132Z" class="svg-color"/>
    <path d="M79.5268 63.5986L80.6111 65.5803L82.5928 66.6645L80.6111 67.7488L79.5268 69.7305L78.4426 67.7488L76.4609 66.6645L78.4426 65.5803L79.5268 63.5986Z" class="svg-color"/>
    <path d="M20.3024 6.01953L21.8727 8.89848L24.7891 10.5062L21.8727 12.0766L20.3024 14.9929L18.6947 12.0766L15.7783 10.5062L18.6947 8.89848L20.3024 6.01953Z" class="svg-color"/>
    <path d="M3.02851 50.9609L4.1128 52.9426L6.09442 53.9895L4.1128 55.0737L3.02851 57.0554L1.94424 55.0737L0 53.9895L1.94424 52.9426L3.02851 50.9609Z" class="svg-color"/>
    <path d="M58.252 72.9092L58.9998 74.2552L60.3458 75.003L58.9998 75.7507L58.252 77.0968L57.5042 75.7507L56.1582 75.003L57.5042 74.2552L58.252 72.9092Z" class="svg-color"/>
    <path d="M75.4889 14.918L76.9097 17.4978L79.5269 18.956L76.9097 20.3768L75.4889 22.9566L74.0681 20.3768L71.4883 18.956L74.0681 17.4978L75.4889 14.918Z" class="svg-color"/>
    <path d="M24.789 92.0518L25.7611 93.809L27.5184 94.7812L25.7611 95.7533L24.789 97.5106L23.8169 95.7533L22.0596 94.7812L23.8169 93.809L24.789 92.0518Z" class="svg-color"/>
</svg>
