<svg width="131" height="77" viewBox="0 0 131 77" fill="none" 
    xmlns="http://www.w3.org/2000/svg">
    <path d="M130.562 17.7598H122.486V24.1159H130.562V17.7598Z" class="svg-color"/>
    <path d="M90.5193 66.627H33.7627V70.0668H90.5193V66.627Z" class="svg-color"/>
    <path d="M107.083 75.5633L20.9383 17.7598L17.0498 23.5925L94.52 75.5633H107.083Z" fill="white"/>
    <path d="M107.082 76.0498H94.5569C94.4447 76.0498 94.37 76.0124 94.2952 75.975L16.825 24.0042C16.6007 23.8546 16.5259 23.5555 16.6755 23.3312L20.5639 17.5359C20.6387 17.4237 20.7509 17.3489 20.863 17.3115C20.9752 17.2742 21.1248 17.3115 21.2369 17.3863L107.344 75.1524C107.531 75.2646 107.606 75.4889 107.531 75.7133C107.494 75.9002 107.307 76.0498 107.082 76.0498ZM94.6691 75.0403H105.437L21.0874 18.4706L17.7224 23.4433L94.6691 75.0403Z" class="svg-color"/>
    <path d="M107.083 23.5925L103.194 17.7598L17.0498 75.5633H29.6125L107.083 23.5925Z" fill="white"/>
    <path d="M29.6123 76.0498H17.087C16.8626 76.0498 16.6757 75.9002 16.6009 75.7133C16.5261 75.4889 16.6009 75.302 16.7879 75.1524L102.895 17.3863C103.007 17.3115 103.119 17.2742 103.269 17.3115C103.381 17.3489 103.493 17.4237 103.568 17.5359L107.456 23.3312C107.606 23.5555 107.531 23.8546 107.307 24.0042L29.8367 75.975C29.7993 76.0124 29.6871 76.0498 29.6123 76.0498ZM18.6573 75.0403H29.4254L106.372 23.4433L103.044 18.4706L18.6573 75.0403Z" class="svg-color"/>
    <path d="M117.552 27.4437H6.58076C3.21574 27.4437 0.486328 24.7143 0.486328 21.3493C0.486328 17.9843 3.21574 15.2549 6.58076 15.2549H117.552C120.917 15.2549 123.646 17.9843 123.646 21.3493C123.683 24.7143 120.917 27.4437 117.552 27.4437Z" class="svg-color"/>
    <path d="M115.383 7.88882H93.585C91.566 7.88882 89.9209 6.24371 89.9209 4.2247C89.9209 2.20568 91.566 0.560547 93.585 0.560547H115.383C117.402 0.560547 119.047 2.20568 119.047 4.2247C119.047 6.24371 117.402 7.88882 115.383 7.88882Z" class="svg-color"/>
    <path d="M113.925 2.20605H112.429H111.981H110.485H110.186H108.69H108.242H106.746H102.072H100.577H100.128H98.6327H98.3335H96.838H96.3893H94.8937C93.8095 2.20605 92.9121 3.10339 92.9121 4.18767C92.9121 5.27195 93.8095 6.16929 94.8937 6.16929H96.3893H96.838H98.3335H98.6327H100.128H100.577H102.072H106.746H108.242H108.69H110.186H110.485H111.981H112.429H113.925C115.009 6.16929 115.906 5.27195 115.906 4.18767C115.944 3.10339 115.046 2.20605 113.925 2.20605Z" fill="white"/>
    <path d="M115.383 8.37516H93.585C91.2669 8.37516 89.3975 6.5057 89.3975 4.18758C89.3975 1.86946 91.2669 0 93.585 0H115.383C117.664 0 119.57 1.86946 119.57 4.18758C119.533 6.5057 117.664 8.37516 115.383 8.37516ZM93.585 1.00951C91.8278 1.00951 90.407 2.43029 90.407 4.18758C90.407 5.94487 91.8278 7.36565 93.585 7.36565H115.383C117.14 7.36565 118.561 5.94487 118.561 4.18758C118.561 2.43029 117.14 1.00951 115.383 1.00951H93.585Z" class="svg-color"/>
    <path d="M113.925 6.69318H95.0058C93.6224 6.69318 92.5381 5.57151 92.5381 4.22551C92.5381 2.84211 93.6598 1.75781 95.0058 1.75781H113.925C115.308 1.75781 116.392 2.8795 116.392 4.22551C116.43 5.57151 115.308 6.69318 113.925 6.69318ZM95.0058 2.69254C94.1832 2.69254 93.5102 3.36554 93.5102 4.1881C93.5102 5.01066 94.1832 5.68367 95.0058 5.68367H113.925C114.747 5.68367 115.42 5.01066 115.42 4.1881C115.42 3.36554 114.747 2.69254 113.925 2.69254H95.0058Z" class="svg-color"/>
    <path d="M115.383 15.2541H93.585C91.566 15.2541 89.9209 13.6089 89.9209 11.5899C89.9209 9.5709 91.566 7.92578 93.585 7.92578H115.383C117.402 7.92578 119.047 9.5709 119.047 11.5899C119.047 13.6089 117.402 15.2541 115.383 15.2541Z" class="svg-color"/>
    <path d="M113.925 9.57129H112.429H111.981H110.485H110.186H108.69H108.242H106.746H102.072H100.577H100.128H98.6327H98.3335H96.838H96.3893H94.8937C93.8095 9.57129 92.9121 10.4686 92.9121 11.5529C92.9121 12.6372 93.8095 13.5345 94.8937 13.5345H96.3893H96.838H98.3335H98.6327H100.128H100.577H102.072H106.746H108.242H108.69H110.186H110.485H111.981H112.429H113.925C115.009 13.5345 115.906 12.6372 115.906 11.5529C115.944 10.4686 115.046 9.57129 113.925 9.57129Z" fill="white"/>
    <path d="M115.383 15.7404H93.585C91.2669 15.7404 89.3975 13.8709 89.3975 11.5528C89.3975 9.27208 91.2669 7.36523 93.585 7.36523H115.383C117.664 7.36523 119.57 9.23469 119.57 11.5528C119.533 13.8709 117.664 15.7404 115.383 15.7404ZM93.585 8.37474C91.8278 8.37474 90.407 9.79553 90.407 11.5528C90.407 13.3101 91.8278 14.7309 93.585 14.7309H115.383C117.14 14.7309 118.561 13.3101 118.561 11.5528C118.561 9.79553 117.14 8.37474 115.383 8.37474H93.585Z" class="svg-color"/>
    <path d="M113.925 14.0584H95.0058C93.6224 14.0584 92.5381 12.9367 92.5381 11.5907C92.5381 10.2073 93.6598 9.12305 95.0058 9.12305H113.925C115.308 9.12305 116.392 10.2447 116.392 11.5907C116.43 12.9367 115.308 14.0584 113.925 14.0584ZM95.0058 10.0578C94.1832 10.0578 93.5102 10.7308 93.5102 11.5533C93.5102 12.3759 94.1832 13.0489 95.0058 13.0489H113.925C114.747 13.0489 115.42 12.3759 115.42 11.5533C115.42 10.7308 114.747 10.0578 113.925 10.0578H95.0058Z" class="svg-color"/>
    <path d="M117.551 27.9295H6.58048C2.95374 27.9295 0 24.9758 0 21.349C0 17.7223 2.95374 14.7686 6.58048 14.7686H117.551C121.178 14.7686 124.132 17.7223 124.132 21.349C124.132 24.9758 121.215 27.9295 117.551 27.9295ZM6.58048 15.7407C3.47719 15.7407 0.972118 18.2458 0.972118 21.349C0.972118 24.4523 3.47719 26.9574 6.58048 26.9574H117.551C120.655 26.9574 123.16 24.4523 123.16 21.349C123.16 18.2458 120.655 15.7407 117.551 15.7407H6.58048Z" class="svg-color"/>
</svg>
