<svg width="102" height="99" viewBox="0 0 102 99" fill="none" 
    xmlns="http://www.w3.org/2000/svg">
    <path d="M60.6077 0.495117C58.2895 3.82275 54.4385 6.0287 50.0639 6.0287C45.6894 6.0287 41.8383 3.82275 39.5202 0.495117L24.9385 2.55152V67.6085H50.0639H75.1894V2.55152L60.6077 0.495117Z" fill="white"/>
    <path d="M24.9757 2.55176L8.63672 14.8528L18.1709 28.6867L24.9757 24.387V2.55176Z" class="svg-color"/>
    <path d="M75.2266 2.55176L91.5656 14.8528L81.994 28.6867L75.2266 24.387V2.55176Z" class="svg-color"/>
    <path d="M18.171 29.1726C18.0214 29.1726 17.8719 29.0978 17.7597 28.9483L8.22548 15.1143C8.07592 14.89 8.11331 14.5908 8.33764 14.4413L24.6767 2.14029C24.8262 2.02812 25.0132 2.02812 25.2001 2.1029C25.3497 2.17768 25.4618 2.36462 25.4618 2.55157V24.4242C25.4618 24.5737 25.3871 24.7607 25.2375 24.8355L18.4327 29.0978C18.3579 29.1352 18.2831 29.1726 18.171 29.1726ZM9.30976 14.9647L18.3205 28.0135L24.4897 24.1251V13.8244V3.52368L9.30976 14.9647Z" class="svg-color"/>
    <path d="M81.9937 29.1726C81.9189 29.1726 81.8068 29.1352 81.732 29.0978L74.9646 24.8355C74.815 24.7607 74.7402 24.5737 74.7402 24.4242V2.55157C74.7402 2.36462 74.8524 2.17768 75.002 2.1029C75.1515 2.02812 75.3758 2.02812 75.5254 2.14029L91.8644 14.4413C92.0888 14.5908 92.1262 14.89 91.9766 15.1143L82.4424 28.9483C82.2928 29.0978 82.1433 29.1726 81.9937 29.1726ZM75.7123 24.1251L81.8815 28.0135L90.8923 14.9647L75.7123 3.52368V24.1251Z" class="svg-color"/>
    <path d="M75.2272 68.0949H24.9763C24.7146 68.0949 24.4902 67.8705 24.4902 67.6088V2.55181C24.4902 2.29008 24.6772 2.10314 24.9015 2.06575L39.4833 0.00934727C39.6702 -0.0280418 39.8571 0.0467364 39.9693 0.233682C42.2874 3.56131 46.0637 5.54293 50.1018 5.54293C54.1398 5.54293 57.9161 3.56131 60.2342 0.233682C60.3464 0.0841254 60.5333 0.00934727 60.7203 0.00934727L75.302 2.06575C75.5263 2.10314 75.7133 2.29008 75.7133 2.55181V67.6088C75.7133 67.8705 75.4889 68.0949 75.2272 68.0949ZM25.4623 67.1227H74.7412V2.96308L60.8698 1.01885C58.3647 4.45865 54.3641 6.51505 50.1018 6.51505C45.8394 6.51505 41.8388 4.45865 39.3337 1.01885L25.4623 2.96308V67.1227Z" class="svg-color"/>
    <path d="M96.2388 67.7215H5.75721C2.84086 67.7215 0.485352 65.3659 0.485352 62.4496C0.485352 59.5332 2.84086 57.1777 5.75721 57.1777H96.2014C99.1178 57.1777 101.473 59.5332 101.473 62.4496C101.511 65.3659 99.1551 67.7215 96.2388 67.7215Z" fill="white"/>
    <path d="M50.9986 67.7207H5.75781L9.53411 97.8563H50.9986H92.4631L96.2394 67.7207H50.9986Z" fill="white"/>
    <path d="M8.63672 90.5654L9.53406 97.8563H50.9986H92.463L93.3604 90.5654H8.63672Z" class="svg-color"/>
    <path d="M96.2395 68.2072H5.75792C2.57985 68.2072 0 65.6274 0 62.4493C0 59.2713 2.57985 56.6914 5.75792 56.6914H96.2021C99.3802 56.6914 101.96 59.2713 101.96 62.4493C101.997 65.6274 99.4176 68.2072 96.2395 68.2072ZM5.75792 57.6635C3.14068 57.6635 0.972116 59.7947 0.972116 62.4493C0.972116 65.0666 3.10329 67.2351 5.75792 67.2351H96.2021C98.8194 67.2351 100.988 65.1039 100.988 62.4493C100.988 59.8321 98.8567 57.6635 96.2021 57.6635H5.75792Z" class="svg-color"/>
    <path d="M92.4628 98.3428H9.53384C9.27212 98.3428 9.08517 98.1558 9.04778 97.9315L5.27148 67.7959C5.27148 67.6464 5.30887 67.5342 5.38365 67.422C5.45843 67.3099 5.60799 67.2725 5.75754 67.2725H96.2017C96.3513 67.2725 96.4635 67.3472 96.5756 67.422C96.6504 67.5342 96.7252 67.6837 96.6878 67.7959L92.9115 97.9315C92.9115 98.1932 92.7245 98.3428 92.4628 98.3428ZM9.98251 97.3707H92.0142L95.6783 68.2072H6.31838L9.98251 97.3707Z" class="svg-color"/>
    <path d="M64.4963 36.9867C65.3016 36.9867 65.9544 36.3338 65.9544 35.5285C65.9544 34.7232 65.3016 34.0703 64.4963 34.0703C63.6909 34.0703 63.0381 34.7232 63.0381 35.5285C63.0381 36.3338 63.6909 36.9867 64.4963 36.9867Z" fill="#E0F5FE"/>
    <path d="M68.9822 32.5376C70.5515 32.5376 71.8238 31.2654 71.8238 29.6961C71.8238 28.1267 70.5515 26.8545 68.9822 26.8545C67.4128 26.8545 66.1406 28.1267 66.1406 29.6961C66.1406 31.2654 67.4128 32.5376 68.9822 32.5376Z" fill="#D3E0F2"/>
    <path d="M94.8183 57.1766C95.7157 55.6437 96.2017 53.849 96.2017 51.9421C96.2017 46.1468 91.4907 41.4358 85.6954 41.4358C82.2182 41.4358 79.1523 43.1557 77.2455 45.7356C76.909 42.1088 73.843 39.2672 70.1041 39.2672C66.627 39.2672 63.748 41.7349 63.075 44.9878C62.3646 44.1652 61.542 43.4922 60.6073 42.9314C60.7195 42.4453 60.7943 41.9219 60.7943 41.3984C60.7943 37.7343 57.8031 34.7432 54.139 34.7432C50.4749 34.7432 47.4837 37.7343 47.4837 41.3984C47.4837 42.4079 47.7081 43.3427 48.1194 44.2026C46.736 45.4738 45.6891 47.1189 45.1656 48.9884C43.9692 47.9415 42.3988 47.3059 40.6789 47.3059C40.3424 47.3059 40.0433 47.3433 39.7068 47.3807C39.7068 47.3433 39.7068 47.3433 39.7068 47.3059C39.7068 40.3515 34.0985 34.7432 27.1441 34.7432C21.0497 34.7432 16.0021 39.0803 14.8431 44.8008C14.7683 44.8008 14.6935 44.8008 14.5814 44.8008C9.72078 44.8008 5.79492 48.7267 5.79492 53.5873C5.79492 54.8585 6.05665 56.0175 6.5427 57.1018H94.8183V57.1766Z" class="svg-color"/>
    <path d="M40.7536 33.0608C38.5476 33.0608 36.7529 31.2662 36.7529 29.0602C36.7529 26.8542 38.5476 25.0596 40.7536 25.0596C42.9595 25.0596 44.7542 26.8542 44.7542 29.0602C44.7542 31.2662 42.9595 33.0608 40.7536 33.0608ZM40.7536 26.0317C39.0711 26.0317 37.725 27.3777 37.725 29.0602C37.725 30.7427 39.0711 32.0887 40.7536 32.0887C42.4361 32.0887 43.7821 30.7427 43.7821 29.0602C43.7447 27.3777 42.3987 26.0317 40.7536 26.0317Z" class="svg-color"/>
    <path d="M64.496 37.4724C63.4117 37.4724 62.5518 36.6125 62.5518 35.5282C62.5518 34.4439 63.4117 33.584 64.496 33.584C65.5803 33.584 66.4402 34.4439 66.4402 35.5282C66.4402 36.6125 65.5429 37.4724 64.496 37.4724ZM64.496 34.5561C63.9725 34.5561 63.5239 35.0048 63.5239 35.5282C63.5239 36.0517 63.9725 36.5003 64.496 36.5003C65.0194 36.5003 65.4681 36.0517 65.4681 35.5282C65.4681 34.9674 65.0194 34.5561 64.496 34.5561Z" class="svg-color"/>
    <path d="M68.9829 33.0234C67.1508 33.0234 65.6553 31.5279 65.6553 29.6958C65.6553 27.8637 67.1508 26.3682 68.9829 26.3682C70.815 26.3682 72.3105 27.8637 72.3105 29.6958C72.3105 31.5279 70.815 33.0234 68.9829 33.0234ZM68.9829 27.3403C67.7117 27.3403 66.6648 28.3872 66.6648 29.6584C66.6648 30.9296 67.7117 31.9765 68.9829 31.9765C70.2541 31.9765 71.301 30.9296 71.301 29.6584C71.301 28.3872 70.2541 27.3403 68.9829 27.3403Z" class="svg-color"/>
</svg>
