<svg width="27" height="20" viewBox="0 0 27 20" fill="none" 
    xmlns="http://www.w3.org/2000/svg">
    <path d="M17.4672 3.48006C17.1207 3.48006 16.7883 3.34258 16.5432 3.09787C16.2981 2.85316 16.1605 2.52126 16.1605 2.17519C16.1605 2.05983 16.1146 1.9492 16.0329 1.86763C15.9512 1.78606 15.8404 1.74023 15.7248 1.74023C15.6093 1.74023 15.4986 1.78606 15.4169 1.86763C15.3352 1.9492 15.2893 2.05983 15.2893 2.17519C15.2893 2.52126 15.1516 2.85316 14.9065 3.09787C14.6614 3.34258 14.329 3.48006 13.9825 3.48006C13.8669 3.48006 13.7562 3.52589 13.6745 3.60746C13.5928 3.68903 13.5469 3.79966 13.5469 3.91502C13.5469 4.03038 13.5928 4.14101 13.6745 4.22258C13.7562 4.30415 13.8669 4.34998 13.9825 4.34998C14.329 4.34998 14.6614 4.48745 14.9065 4.73216C15.1516 4.97687 15.2893 5.30877 15.2893 5.65485C15.2893 5.77021 15.3352 5.88084 15.4169 5.96241C15.4986 6.04398 15.6093 6.0898 15.7248 6.0898C15.8404 6.0898 15.9512 6.04398 16.0329 5.96241C16.1146 5.88084 16.1605 5.77021 16.1605 5.65485C16.1605 5.30877 16.2981 4.97687 16.5432 4.73216C16.7883 4.48745 17.1207 4.34998 17.4672 4.34998C17.5828 4.34998 17.6936 4.30415 17.7753 4.22258C17.8569 4.14101 17.9028 4.03038 17.9028 3.91502C17.9028 3.79966 17.8569 3.68903 17.7753 3.60746C17.6936 3.52589 17.5828 3.48006 17.4672 3.48006ZM15.7248 4.34998C15.601 4.18517 15.4543 4.03873 15.2893 3.91502C15.2893 3.79966 15.3352 3.68903 15.4169 3.60746C15.4986 3.52589 15.6093 3.48006 15.7248 3.48006C15.8404 3.48006 15.9512 3.52589 16.0329 3.60746C16.1146 3.68903 16.1605 3.79966 16.1605 3.91502C15.9954 4.03875 15.8488 4.18519 15.7248 4.34998Z" fill="#7C8495"/>
    <path d="M21.3891 1.73983C21.0426 1.73983 20.7101 1.60235 20.4651 1.35764C20.22 1.11293 20.0823 0.78103 20.0823 0.434957C20.0823 0.319599 20.0364 0.208964 19.9547 0.127394C19.873 0.0458234 19.7623 0 19.6468 0C19.5312 0 19.4204 0.0458234 19.3387 0.127394C19.257 0.208964 19.2111 0.319599 19.2111 0.434957C19.2111 0.606315 19.1774 0.775991 19.1117 0.934305C19.046 1.09262 18.9497 1.23647 18.8284 1.35764C18.707 1.47881 18.563 1.57492 18.4045 1.6405C18.2459 1.70607 18.076 1.73983 17.9044 1.73983C17.7888 1.73983 17.678 1.78565 17.5963 1.86722C17.5146 1.94879 17.4688 2.05943 17.4688 2.17479C17.4688 2.29014 17.5146 2.40077 17.5963 2.48234C17.678 2.56391 17.7888 2.60974 17.9044 2.60974C18.076 2.60974 18.2459 2.64349 18.4045 2.70906C18.563 2.77464 18.707 2.87076 18.8284 2.99193C18.9497 3.1131 19.046 3.25694 19.1117 3.41526C19.1774 3.57357 19.2111 3.74326 19.2111 3.91461C19.2111 4.02997 19.257 4.1406 19.3387 4.22217C19.4204 4.30374 19.5312 4.34957 19.6468 4.34957C19.7623 4.34957 19.873 4.30374 19.9547 4.22217C20.0364 4.1406 20.0823 4.02997 20.0823 3.91461C20.0823 3.56854 20.22 3.23664 20.4651 2.99193C20.7101 2.74722 21.0426 2.60974 21.3891 2.60974C21.5047 2.60974 21.6154 2.56391 21.6971 2.48234C21.7788 2.40077 21.8247 2.29014 21.8247 2.17479C21.8247 2.05943 21.7788 1.94879 21.6971 1.86722C21.6154 1.78565 21.5047 1.73983 21.3891 1.73983ZM19.6468 2.60974C19.5228 2.44497 19.3762 2.29854 19.2111 2.17479C19.2111 2.05943 19.257 1.94879 19.3387 1.86722C19.4204 1.78565 19.5312 1.73983 19.6468 1.73983C19.7623 1.73983 19.873 1.78565 19.9547 1.86722C20.0364 1.94879 20.0823 2.05943 20.0823 2.17479C19.9173 2.29858 19.7707 2.44501 19.6468 2.60974Z" fill="#7C8495"/>
    <path d="M14.4177 10.4476H13.5465V5.6631C13.5476 5.60528 13.5371 5.54782 13.5158 5.49408C13.4944 5.44034 13.4625 5.39139 13.4219 5.35011C13.3813 5.30883 13.3329 5.27603 13.2795 5.25365C13.2261 5.23127 13.1688 5.21975 13.1109 5.21976H3.09215C2.73707 5.21745 2.38984 5.32406 2.09739 5.52516C1.80494 5.72625 1.58137 6.01215 1.45689 6.34421C1.33241 6.67627 1.31302 7.03848 1.40136 7.3819C1.48969 7.72532 1.68148 8.03338 1.9508 8.26445C1.64079 8.52632 1.43443 8.89 1.36879 9.29014C1.30316 9.69027 1.38254 10.1007 1.59269 10.4476H0.478566C0.365883 10.4475 0.257553 10.491 0.176327 10.569C0.0951021 10.647 0.0473027 10.7534 0.0429688 10.8658L0.0429688 12.6057C0.0429688 12.721 0.0888619 12.8316 0.170552 12.9132C0.252242 12.9948 0.363038 13.0406 0.478566 13.0406H0.964424L1.78745 19.6193C1.8007 19.7243 1.85181 19.8209 1.93122 19.8909C2.01063 19.961 2.1129 19.9997 2.21886 19.9999H12.6753C12.7812 19.9997 12.8835 19.961 12.9629 19.8909C13.0423 19.8209 13.0934 19.7243 13.1067 19.6193L13.9297 13.0406H14.4156C14.5311 13.0406 14.6419 12.9948 14.7236 12.9132C14.8053 12.8316 14.8512 12.721 14.8512 12.6057V10.8658C14.8469 10.7538 14.7993 10.6477 14.7186 10.5698C14.6378 10.4918 14.53 10.4481 14.4177 10.4476ZM3.09215 6.09804H12.6753V7.83786H3.09215C2.86109 7.83786 2.6395 7.74622 2.47612 7.58308C2.31274 7.41994 2.22095 7.19867 2.22095 6.96795C2.22095 6.73724 2.31274 6.51596 2.47612 6.35282C2.6395 6.18968 2.86109 6.09804 3.09215 6.09804ZM3.09215 8.70778H12.6753V10.4476H3.09215C2.97774 10.4476 2.86445 10.4251 2.75876 10.3814C2.65306 10.3377 2.55702 10.2736 2.47612 10.1928C2.39522 10.112 2.33105 10.0161 2.28727 9.91059C2.24349 9.80505 2.22095 9.69193 2.22095 9.57769C2.22095 9.46345 2.24349 9.35034 2.28727 9.24479C2.33105 9.13925 2.39522 9.04334 2.47612 8.96257C2.55702 8.88179 2.65306 8.81771 2.75876 8.77399C2.86445 8.73027 2.97774 8.70778 3.09215 8.70778ZM12.292 19.1467H2.60629L1.844 13.049H13.0543L12.292 19.1467ZM13.9842 12.1874H0.914163V11.3175H13.9821L13.9842 12.1874Z" fill="#7C8495"/>
    <path d="M25.7433 7.8291H16.1602C16.0447 7.8291 15.9339 7.87494 15.8522 7.95651C15.7705 8.03808 15.7246 8.14868 15.7246 8.26404V11.7437C15.7246 11.8591 15.7705 11.9697 15.8522 12.0513C15.9339 12.1328 16.0447 12.1787 16.1602 12.1787H17.467V17.4065C17.467 17.5219 17.5129 17.6325 17.5946 17.7141C17.6763 17.7956 17.7871 17.8415 17.9026 17.8415H24.0009C24.0581 17.8415 24.1148 17.8302 24.1676 17.8084C24.2205 17.7865 24.2685 17.7545 24.309 17.7141C24.3494 17.6737 24.3815 17.6257 24.4034 17.5729C24.4253 17.5202 24.4366 17.4636 24.4366 17.4065V12.1787H25.7433C25.8589 12.1787 25.9697 12.1328 26.0514 12.0513C26.1331 11.9697 26.1789 11.8591 26.1789 11.7437V8.26404C26.1789 8.20692 26.1677 8.15038 26.1458 8.09761C26.1239 8.04484 26.0918 7.9969 26.0514 7.95651C26.0109 7.91612 25.9629 7.88408 25.91 7.86222C25.8572 7.84036 25.8005 7.8291 25.7433 7.8291ZM20.089 8.69902H21.8313V10.0039C21.8313 10.2346 21.7396 10.4559 21.5762 10.619C21.4128 10.7821 21.1912 10.8738 20.9602 10.8738C20.7291 10.8738 20.5075 10.7821 20.3441 10.619C20.1807 10.4559 20.089 10.2346 20.089 10.0039V8.69902ZM25.3245 11.3088H24.0177C23.9022 11.3088 23.7914 11.3546 23.7097 11.4361C23.628 11.5177 23.5821 11.6283 23.5821 11.7437V16.9715H18.3466V11.7437C18.3466 11.6283 18.3007 11.5177 18.219 11.4361C18.1373 11.3546 18.0265 11.3088 17.911 11.3088H16.6042V8.69902H19.2178V10.0039C19.2178 10.4653 19.4013 10.9078 19.7281 11.2341C20.0548 11.5604 20.498 11.7437 20.9602 11.7437C21.4223 11.7437 21.8655 11.5604 22.1922 11.2341C22.519 10.9078 22.7025 10.4653 22.7025 10.0039V8.69902H25.3161L25.3245 11.3088Z" fill="#7C8495"/>
    <path d="M3.96402 13.918H3.09282C2.9773 13.918 2.8665 13.9638 2.78481 14.0453C2.70312 14.1269 2.65723 14.2376 2.65723 14.3529C2.65723 14.4683 2.70312 14.5789 2.78481 14.6605C2.8665 14.742 2.9773 14.7879 3.09282 14.7879H3.96402C4.07955 14.7879 4.19034 14.742 4.27204 14.6605C4.35373 14.5789 4.39962 14.4683 4.39962 14.3529C4.39962 14.2376 4.35373 14.1269 4.27204 14.0453C4.19034 13.9638 4.07955 13.918 3.96402 13.918Z" fill="#7C8495"/>
    <path d="M11.3683 13.918H5.71392C5.59839 13.918 5.48759 13.9638 5.4059 14.0453C5.32421 14.1269 5.27832 14.2376 5.27832 14.3529C5.27832 14.4683 5.32421 14.5789 5.4059 14.6605C5.48759 14.742 5.59839 14.7879 5.71392 14.7879H11.3683C11.4838 14.7879 11.5946 14.742 11.6763 14.6605C11.758 14.5789 11.8039 14.4683 11.8039 14.3529C11.8039 14.2376 11.758 14.1269 11.6763 14.0453C11.5946 13.9638 11.4838 13.918 11.3683 13.918Z" fill="#7C8495"/>
</svg>
