<svg width="50" height="30" viewBox="0 0 50 30" fill="none" 
    xmlns="http://www.w3.org/2000/svg">
    <path d="M47.28 20.321L33.1742 13.4783L16.859 21.3846C16.2132 21.7037 15.9413 22.5191 16.2132 23.1928C16.4851 23.8664 17.2669 24.15 17.9127 23.8309L33.1742 16.421L46.1584 22.7319C46.9741 23.1219 47.484 23.9728 47.484 24.8946C47.484 26.2064 46.4643 27.27 45.2406 27.3409H4.92854C3.63693 27.3409 2.58324 26.2418 2.58324 24.8946C2.58324 23.9728 3.09309 23.1219 3.90884 22.7319L25.2885 12.3437C25.9343 12.0601 26.3422 11.3865 26.3422 10.6419V9.15283C26.3422 8.30193 25.6964 7.55739 24.8806 7.55739C23.589 7.55739 22.5353 6.42285 22.5693 5.07558C22.5693 3.79922 23.623 2.73559 24.8467 2.70014C25.8324 2.70014 26.6821 3.33832 27.022 4.22468C27.2599 4.75649 27.7018 5.11104 28.2457 5.11104C29.1294 5.11104 29.7752 4.18922 29.4693 3.30286C28.7215 1.31742 26.8521 -0.100756 24.6767 0.00560683C22.1954 0.147424 20.156 2.23923 20.0201 4.86285C19.9181 7.38011 21.5496 9.54283 23.759 10.0746C23.759 10.0746 23.793 10.0746 23.793 10.1101V10.1456L2.75319 20.321C1.08768 21.1719 0 22.9446 0 24.8946C0 27.6955 2.17536 29.9645 4.79258 29.9645L45.1726 30C47.8239 29.9645 49.9992 27.6955 49.9992 24.93C50.0332 22.98 48.9455 21.1719 47.28 20.321Z" />
</svg>
