<svg width="18" height="17" viewBox="0 0 18 17" fill="none" 
    xmlns="http://www.w3.org/2000/svg">
    <path d="M3.77699 4.13923e-10H1.1171C0.503284 4.13923e-10 0.00390625 0.500002 0.00390625 1.11459V3.77779C0.00390625 4.39238 0.503284 4.89238 1.1171 4.89238H3.77699C4.3908 4.89238 4.89018 4.39238 4.89018 3.77779V1.11459C4.89018 0.500002 4.3908 4.13923e-10 3.77699 4.13923e-10ZM4.04055 3.77779C4.04055 3.92363 3.92264 4.04168 3.77699 4.04168H1.1171C0.971451 4.04168 0.853543 3.92363 0.853543 3.77779V1.11459C0.853543 0.968754 0.971451 0.850698 1.1171 0.850698H3.77699C3.92264 0.850698 4.04055 0.968754 4.04055 1.11459V3.77779Z" fill="#EDF0F7"/>
    <path d="M0 9.83346C0 10.448 0.499378 10.948 1.1132 10.948H3.77308C4.3869 10.948 4.88628 10.448 4.88628 9.83346V7.17025C4.88628 6.55567 4.3869 6.05566 3.77308 6.05566H1.11666C0.502846 6.05566 0.0034679 6.55567 0.0034679 7.17025V9.83346H0ZM0.849636 7.16678C0.849636 7.02095 0.967545 6.90289 1.1132 6.90289H3.77308C3.91873 6.90289 4.03664 7.02095 4.03664 7.16678V9.82999C4.03664 9.97582 3.91873 10.0939 3.77308 10.0939H1.11666C0.971013 10.0939 0.853104 9.97582 0.853104 9.82999V7.16678H0.849636Z" fill="#EDF0F7"/>
    <path d="M0 15.8852C0 16.4998 0.499378 16.9998 1.1132 16.9998H3.77308C4.3869 16.9998 4.88628 16.4998 4.88628 15.8852V13.222C4.88628 12.6074 4.3869 12.1074 3.77308 12.1074H1.11666C0.502846 12.1074 0.0034679 12.6074 0.0034679 13.222V15.8852H0ZM0.849636 13.222C0.849636 13.0762 0.967545 12.9581 1.1132 12.9581H3.77308C3.91873 12.9581 4.03664 13.0762 4.03664 13.222V15.8852C4.03664 16.0311 3.91873 16.1491 3.77308 16.1491H1.11666C0.971013 16.1491 0.853104 16.0311 0.853104 15.8852V13.222H0.849636Z" fill="#EDF0F7"/>
    <path d="M8.0203 2.87175H17.5744C17.8102 2.87175 18.0009 2.68078 18.0009 2.44466C18.0009 2.20855 17.8102 2.01758 17.5744 2.01758H8.0203C7.78448 2.01758 7.59375 2.20855 7.59375 2.44466C7.59375 2.68078 7.78448 2.87175 8.0203 2.87175Z" fill="#EDF0F7"/>
    <path d="M8.0203 8.92741H17.5744C17.8102 8.92741 18.0009 8.73644 18.0009 8.50033C18.0009 8.26422 17.8102 8.07324 17.5744 8.07324H8.0203C7.78448 8.07324 7.59375 8.26422 7.59375 8.50033C7.59375 8.73644 7.78448 8.92741 8.0203 8.92741Z" fill="#EDF0F7"/>
    <path d="M8.0203 14.9792H17.5744C17.8102 14.9792 18.0009 14.7882 18.0009 14.5521C18.0009 14.316 17.8102 14.125 17.5744 14.125H8.0203C7.78448 14.125 7.59375 14.316 7.59375 14.5521C7.59375 14.7882 7.78448 14.9792 8.0203 14.9792Z" fill="#EDF0F7"/>
</svg>
