<svg width="25" height="36" viewBox="0 0 25 36" fill="none" 
    xmlns="http://www.w3.org/2000/svg">
    <path d="M21.3407 3.66157C18.9796 1.30049 15.8402 0 12.5013 0C9.16172 0 6.02295 1.30049 3.66186 3.66157C-0.707643 8.03043 -1.25065 16.2505 2.48588 21.2309L12.5013 35.6946L22.5017 21.2511C26.2532 16.2505 25.7102 8.03043 21.3407 3.66157ZM21.4443 20.489L12.5013 33.4039L3.54387 20.4688C0.154786 15.95 0.640431 8.5265 4.58426 4.58332C6.69894 2.46864 9.51047 1.30375 12.5013 1.30375C15.4921 1.30375 18.3036 2.46864 20.4189 4.58332C24.3628 8.5265 24.8484 15.95 21.4443 20.489Z" fill="black" fill-opacity="0.5"/>
</svg>
