<svg width="17" height="16" viewBox="0 0 17 16" fill="none" 
    xmlns="http://www.w3.org/2000/svg">
    <path d="M15.9676 9.11629H9.95219V15.1318C9.95219 15.4058 9.58008 16 8.83591 16C8.09173 16 7.71962 15.4058 7.71962 15.1318V9.11626H1.70415C1.43016 9.11629 0.835938 8.74418 0.835938 8.00003C0.835938 7.25588 1.43016 6.88374 1.70415 6.88374H7.71965V0.868217C7.71965 0.594252 8.09173 0 8.83594 0C9.58015 0 9.95222 0.594252 9.95222 0.868217V6.88374H15.9677C16.2417 6.88374 16.8359 7.25582 16.8359 8.00003C16.8359 8.74425 16.2416 9.11629 15.9676 9.11629Z" fill="#4F4F4F"/>
</svg>
