<svg width="115" height="115" viewBox="0 0 115 115" fill="none" 
    xmlns="http://www.w3.org/2000/svg">
    <path d="M57.5 0C25.795 0 0 25.795 0 57.5C0 89.205 25.795 115 57.5 115C89.2075 115 115 89.205 115 57.5C115 25.795 89.2075 0 57.5 0ZM57.5 110C28.55 110 5 86.45 5 57.5C5 28.55 28.55 5 57.5 5C86.4475 5 110 28.55 110 57.5C110 86.45 86.4475 110 57.5 110Z" fill="#666666"/>
    <path d="M45 47.5C45 43.365 41.635 40 37.5 40C33.365 40 30 43.365 30 47.5C30 51.635 33.365 55 37.5 55C41.635 55 45 51.635 45 47.5ZM35 47.5C35 46.1225 36.1225 45 37.5 45C38.8775 45 40 46.1225 40 47.5C40 48.8775 38.8775 50 37.5 50C36.1225 50 35 48.8775 35 47.5Z" fill="#666666"/>
    <path d="M77.5 40C73.365 40 70 43.365 70 47.5C70 51.635 73.365 55 77.5 55C81.635 55 85 51.635 85 47.5C85 43.365 81.635 40 77.5 40ZM77.5 50C76.12 50 75 48.8775 75 47.5C75 46.1225 76.12 45 77.5 45C78.88 45 80 46.1225 80 47.5C80 48.8775 78.88 50 77.5 50Z" fill="#666666"/>
    <path d="M57.4992 70C48.1792 70 39.2992 73.9475 33.1367 80.8325C32.2167 81.8625 32.3042 83.4425 33.3317 84.3625C34.3617 85.285 35.9417 85.195 36.8617 84.1675C42.0767 78.34 49.5992 75 57.4992 75C65.3992 75 72.9216 78.34 78.1367 84.1675C78.6292 84.72 79.3142 85 79.9992 85C80.5917 85 81.1917 84.79 81.6666 84.3625C82.6941 83.4425 82.7816 81.8625 81.8616 80.8325C75.6992 73.95 66.8217 70 57.4992 70Z" fill="#666666"/>
</svg>
