<svg width="16" height="19" viewBox="0 0 16 19" fill="none" 
    xmlns="http://www.w3.org/2000/svg">
    <path d="M13.1119 2.63409H10.369C10.2321 1.43473 9.22262 0.5 7.99998 0.5C6.77738 0.5 5.76802 1.43469 5.63119 2.63409H2.88806C1.77799 2.63409 0.875 3.54711 0.875 4.66914V4.77356C0.875 5.63101 1.40319 6.36492 2.14725 6.66396V16.2774C2.14725 17.3995 3.05035 18.3125 4.16034 18.3125H11.8397C12.9497 18.3125 13.8528 17.3994 13.8528 16.2774V6.664C14.5968 6.36492 15.125 5.63101 15.125 4.7736V4.66918C15.125 3.54711 14.2219 2.63409 13.1119 2.63409ZM7.99998 1.46512C8.69535 1.46512 9.27577 1.96893 9.4042 2.63409H6.59602C6.72441 1.96889 7.30487 1.46512 7.99998 1.46512ZM12.898 16.2774C12.898 16.8674 12.4231 17.3474 11.8397 17.3474H4.1603C3.57685 17.3474 3.102 16.8674 3.102 16.2774V6.80862H12.898V16.2774ZM14.1702 4.77356C14.1702 5.36351 13.6954 5.84354 13.1119 5.84354H2.88806C2.30461 5.84354 1.82975 5.36351 1.82975 4.77356V4.66914C1.82975 4.0792 2.30461 3.59917 2.88806 3.59917H13.1119C13.6954 3.59917 14.1702 4.0792 14.1702 4.66914V4.77356H14.1702Z" fill="white"/>
    <path d="M5.43831 16.1132C5.70197 16.1132 5.91569 15.8971 5.91569 15.6307V10.1974C5.91569 9.93099 5.70193 9.71484 5.43831 9.71484C5.1747 9.71484 4.96094 9.93099 4.96094 10.1974V15.6307C4.9609 15.8972 5.17466 16.1132 5.43831 16.1132Z" fill="white"/>
    <path d="M7.99886 16.1132C8.26251 16.1132 8.47627 15.8971 8.47627 15.6307V10.1974C8.47627 9.93099 8.26244 9.71484 7.99886 9.71484C7.73524 9.71484 7.52148 9.93099 7.52148 10.1974V15.6307C7.52148 15.8972 7.73521 16.1132 7.99886 16.1132Z" fill="white"/>
    <path d="M10.5594 16.1132C10.8231 16.1132 11.0368 15.8971 11.0368 15.6307V10.1974C11.0368 9.93099 10.823 9.71484 10.5594 9.71484C10.2958 9.71484 10.082 9.93099 10.082 10.1974V15.6307C10.082 15.8972 10.2958 16.1132 10.5594 16.1132Z" fill="white"/>
</svg>
