<svg width="16" height="16" viewBox="0 0 16 16" fill="none" 
    xmlns="http://www.w3.org/2000/svg">
    <path d="M8 0C3.5888 0 0 3.5888 0 8C0 12.4112 3.5888 16 8 16C12.4112 16 16 12.4112 16 8C16 3.5888 12.4112 0 8 0ZM12.1501 8.22027L6.28347 12.2203C6.2384 12.2509 6.18587 12.2667 6.13333 12.2667C6.09067 12.2667 6.04773 12.2565 6.0088 12.2357C5.92133 12.1896 5.86667 12.0989 5.86667 12V4C5.86667 3.90107 5.92133 3.8104 6.0088 3.76427C6.09627 3.71787 6.20187 3.72427 6.28373 3.77973L12.1504 7.77973C12.2229 7.82933 12.2667 7.91173 12.2667 8C12.2667 8.08827 12.2229 8.17067 12.1501 8.22027Z" fill="#42459D"/>
</svg>
