<svg width="21" height="26" viewBox="0 0 21 26" fill="none" xmlns="http://www.w3.org/2000/svg">
<path d="M18.3655 0H2.08214C0.960987 0 0 0.907597 0 2.08214V23.9179C0 25.039 0.907598 26 2.08214 26H18.3655C19.4867 26 20.4476 25.0924 20.4476 23.9179V2.08214C20.4476 0.907597 19.54 0 18.3655 0ZM18.4723 2.08214V4.9117H7.79466V1.97536H18.4189C18.4189 1.97536 18.4723 2.02875 18.4723 2.08214ZM1.97536 6.83368H18.4189V21.6756H1.97536V6.83368ZM2.08214 1.97536H6.7269V4.85832H2.02875V2.08214C1.97536 2.02875 2.02875 1.97536 2.08214 1.97536ZM18.3655 23.9713H2.08214C2.02875 23.9713 2.02875 23.9179 2.02875 23.9179V22.7967H18.4723V23.9179C18.4723 23.9179 18.4189 23.9713 18.3655 23.9713Z" />
<path d="M10.0898 7.79395C6.88653 7.79395 4.27051 10.41 4.27051 13.6132C4.27051 16.8165 6.88653 19.4326 10.0898 19.4326C13.2931 19.4326 15.9091 16.8165 15.9091 13.6132C15.9625 10.41 13.3465 7.79395 10.0898 7.79395ZM10.0898 17.7241C7.79412 17.7241 5.97893 15.8555 5.97893 13.6132C5.97893 11.3176 7.84751 9.50236 10.0898 9.50236C12.3855 9.50236 14.2007 11.3709 14.2007 13.6132C14.2541 15.9089 12.3855 17.7241 10.0898 17.7241Z" />
<path d="M9.50296 3.95026C9.85679 3.95026 10.1436 3.66343 10.1436 3.3096C10.1436 2.95578 9.85679 2.66895 9.50296 2.66895C9.14914 2.66895 8.8623 2.95578 8.8623 3.3096C8.8623 3.66343 9.14914 3.95026 9.50296 3.95026Z" />
<path d="M11.4258 3.95026C11.7796 3.95026 12.0665 3.66343 12.0665 3.3096C12.0665 2.95578 11.7796 2.66895 11.4258 2.66895C11.072 2.66895 10.7852 2.95578 10.7852 3.3096C10.7852 3.66343 11.072 3.95026 11.4258 3.95026Z" />
<path d="M13.4004 3.95026C13.7542 3.95026 14.0411 3.66343 14.0411 3.3096C14.0411 2.95578 13.7542 2.66895 13.4004 2.66895C13.0466 2.66895 12.7598 2.95578 12.7598 3.3096C12.7598 3.66343 13.0466 3.95026 13.4004 3.95026Z" />
</svg>
