<svg width="26" height="27" viewBox="0 0 26 27" fill="none" 
    xmlns="http://www.w3.org/2000/svg">
    <path d="M24.8529 6.0625H1.09244C0.491597 6.0625 0 6.5541 0 7.15494V7.53729C0 8.13813 0.491597 8.62973 1.09244 8.62973H8.57564L12.2899 14.0373L4.15126 25.8356C3.93278 26.1087 4.04202 26.5457 4.31513 26.7096C4.42437 26.7642 4.53362 26.8188 4.69748 26.8188C4.91597 26.8188 5.07983 26.7096 5.2437 26.5457L13.1092 15.1297L20.9748 26.5457C21.084 26.7096 21.3025 26.8188 21.521 26.8188C21.6303 26.8188 21.7941 26.7642 21.9034 26.7096C22.1765 26.4911 22.2857 26.1087 22.0672 25.8356L13.9286 14.0373L17.6429 8.62973H24.9076C25.5084 8.62973 26 8.13813 26 7.53729V7.15494C25.9454 6.5541 25.4538 6.0625 24.8529 6.0625ZM13.1092 12.8902L10.1597 8.62973H16.0042L13.1092 12.8902Z" />
    <path d="M4.74882 5.89916H11.3034C11.6858 5.89916 12.0681 5.68067 12.1774 5.29832C12.3413 4.97059 12.2866 4.53361 12.0135 4.2605L10.7572 2.89496C10.3749 2.5126 9.88327 2.29412 9.33706 2.29412H6.66059C6.27824 2.29412 6.00512 2.56723 6.00512 2.94958C6.00512 3.33193 6.27824 3.60504 6.66059 3.60504H9.33706C9.50092 3.60504 9.66478 3.65966 9.82865 3.82353L10.5934 4.64286H5.24042L6.16899 1.52941C6.22361 1.36555 6.33286 1.31092 6.49672 1.31092H9.99252C10.3749 1.31092 10.648 1.03782 10.648 0.655462C10.648 0.273109 10.211 0 9.88327 0H6.38748C5.6774 0 5.02193 0.491597 4.85807 1.14706L3.82025 4.64286C3.711 4.91597 3.76563 5.2437 3.98411 5.51681C4.14798 5.78992 4.42109 5.89916 4.74882 5.89916Z" />
</svg>
