<svg width="35" height="30" viewBox="0 0 35 30" fill="none" 
    xmlns="http://www.w3.org/2000/svg">
    <path d="M32.0833 4.37506H24.7916V2.91668C24.7916 1.30812 23.4836 2.50339e-08 21.875 2.50339e-08H13.125C11.5164 2.50339e-08 10.2083 1.30805 10.2083 2.91668V4.37499H2.91668C1.30805 4.37506 0 5.68311 0 7.29167V26.2499C0 27.8585 1.30805 29.1666 2.91668 29.1666H32.0833C33.6919 29.1666 35 27.8586 35 26.2499V7.29167C34.9999 5.68311 33.6919 4.37506 32.0833 4.37506ZM11.6667 2.91668C11.6667 2.11278 12.3211 1.45838 13.125 1.45838H21.875C22.6789 1.45838 23.3333 2.11278 23.3333 2.91668V4.37499H11.6667V2.91668ZM33.5416 26.25C33.5416 27.0539 32.8872 27.7083 32.0833 27.7083H2.91668C2.11278 27.7083 1.45838 27.0539 1.45838 26.25V15.6361C1.88911 15.8872 2.38307 16.0417 2.91668 16.0417H14.5834V18.2292C14.5834 18.6323 14.9095 18.9584 15.3125 18.9584H19.6875C20.0906 18.9584 20.4167 18.6323 20.4167 18.2292V16.0417H32.0834C32.617 16.0417 33.111 15.8873 33.5417 15.6361V26.25H33.5416ZM16.0417 17.5V14.5834H18.9583V17.5H16.0417ZM33.5416 13.125C33.5416 13.9289 32.8872 14.5834 32.0833 14.5834H20.4167V13.8542C20.4167 13.4511 20.0905 13.125 19.6875 13.125H15.3125C14.9094 13.125 14.5833 13.4511 14.5833 13.8542V14.5834H2.91668C2.11278 14.5834 1.45838 13.9289 1.45838 13.125V7.29174C1.45838 6.48784 2.11278 5.83344 2.91668 5.83344H32.0833C32.8872 5.83344 33.5416 6.48784 33.5416 7.29174V13.125Z" fill="black" fill-opacity="0.5"/>
</svg>
